<svg width="236" height="213" viewBox="0 0 236 213" fill="none" xmlns="http://www.w3.org/2000/svg">
<mask id="path-1-inside-1_301_1821" fill="white">
<path d="M197.355 53.0757C204.277 53.0357 211.065 51.1649 217.03 47.6533C221.533 45.104 225.466 41.6583 228.586 37.5289C231.705 33.3996 233.944 28.6745 235.166 23.6455C235.416 22.5356 235.237 21.372 234.664 20.3889C234.091 19.4058 233.167 18.6761 232.078 18.3467C227.101 16.9296 221.886 16.5484 216.755 17.2265C211.625 17.9045 206.688 19.6276 202.25 22.2891C198.346 24.5579 194.854 27.4712 191.923 30.9055C191.066 26.4726 189.464 22.2167 187.187 18.3184C184.637 13.8146 181.192 9.8815 177.062 6.76206C172.933 3.64263 168.208 1.40318 163.179 0.182114C162.069 -0.0683358 160.905 0.110901 159.922 0.683762C158.939 1.25662 158.209 2.18058 157.88 3.26971C156.463 8.24708 156.082 13.4621 156.76 18.5926C157.438 23.7231 159.161 28.66 161.823 33.0983C166.222 40.7862 173.138 46.7211 181.405 49.9011C179.943 57.8293 177.683 71.7786 175.807 90.7051C174.189 87.7571 172.275 84.9815 170.095 82.4211C161.554 72.3942 149.603 66.3322 137.305 65.7888C136.168 65.7392 135.055 66.1218 134.189 66.8595C133.323 67.5971 132.768 68.6353 132.636 69.7653C131.216 81.9938 135.3 94.757 143.84 104.783C151.339 113.768 161.938 119.608 173.538 121.149C173.004 131.604 172.657 143.162 172.638 155.644C170.92 153.14 168.976 150.799 166.831 148.65C157.518 139.337 145.127 134.257 132.818 134.687C131.681 134.728 130.601 135.198 129.797 136.002C128.992 136.807 128.522 137.886 128.482 139.024C128.042 151.325 133.131 163.723 142.444 173.036C150.619 181.377 161.622 186.352 173.284 186.98C173.658 195.706 174.218 204.724 174.964 214.035H61.0358C61.7968 204.735 62.3568 195.717 62.7158 186.98C74.3777 186.352 85.3809 181.377 93.5558 173.036C102.869 163.723 107.959 151.325 107.519 139.024C107.478 137.886 107.008 136.807 106.204 136.002C105.399 135.198 104.319 134.728 103.182 134.687C90.881 134.256 78.483 139.337 69.1695 148.65C67.024 150.799 65.0802 153.14 63.3626 155.644C63.3434 143.162 62.9963 131.604 62.4618 121.149C74.0623 119.608 84.6614 113.768 92.16 104.784C100.701 94.7573 104.784 81.9937 103.364 69.7656C103.233 68.6351 102.679 67.5962 101.813 66.8583C100.946 66.1204 99.8325 65.7383 98.6956 65.7891C86.3978 66.3325 74.4456 72.3945 65.9056 82.4214C63.7254 84.9818 61.8115 87.7574 60.1934 90.7054C58.3176 71.7789 56.0576 57.8296 54.5956 49.9014C62.8624 46.7214 69.7789 40.7865 74.1775 33.0986C76.839 28.6603 78.562 23.7233 79.2401 18.5927C79.9182 13.4622 79.537 8.2471 78.12 3.26971C77.7909 2.18041 77.0613 1.25627 76.0781 0.68332C75.095 0.110372 73.9312 -0.0688268 72.8212 0.181809C67.7922 1.40288 63.067 3.64233 58.9377 6.76177C54.8083 9.8812 51.3626 13.8143 48.8134 18.3181C46.5355 22.2164 44.9341 26.4723 44.0771 30.9052C41.1458 27.4709 37.6543 24.5576 33.7504 22.2888C29.3121 19.6274 24.3752 17.9044 19.2447 17.2263C14.1142 16.5482 8.89917 16.9295 3.92183 18.3464C2.83272 18.6758 1.90879 19.4055 1.33597 20.3886C0.763142 21.3717 0.583937 22.5353 0.834425 23.6452C2.05542 28.6742 4.29477 33.3994 7.41408 37.5288C10.5334 41.6582 14.4664 45.104 18.97 47.6533C24.9348 51.1651 31.7227 53.0359 38.6443 53.0757C41.0753 53.0737 43.4996 52.822 45.8791 52.3247C47.2812 60.0586 49.3783 73.1688 51.1305 90.5186C49.2395 88.1964 47.1422 86.05 44.8641 84.106C34.8372 75.566 22.0774 71.4829 9.84553 72.9019C8.71523 73.033 7.67657 73.5875 6.93872 74.4537C6.20086 75.3199 5.81861 76.4335 5.86892 77.5703C6.41292 89.8687 12.4754 101.82 22.5018 110.36C30.8942 117.641 41.5974 121.71 52.7073 121.841C52.9665 121.841 53.2253 121.824 53.4844 121.819C54.0158 132.277 54.3566 143.855 54.363 156.368C52.5269 153.59 50.4155 151.004 48.0608 148.65C38.7483 139.337 26.3562 134.257 14.0481 134.687C12.911 134.728 11.8315 135.198 11.0269 136.003C10.2223 136.807 9.75237 137.887 9.71173 139.024C9.27173 151.325 14.3611 163.723 23.6746 173.037C31.6587 181.175 42.338 186.12 53.7087 186.943C53.3305 195.677 52.7619 204.708 52.0027 214.036H26.5151C25.3834 214.036 24.2932 214.462 23.4618 215.23C22.6304 215.998 22.119 217.051 22.0293 218.179L19.8242 245.912C17.1794 278.565 27.1627 310.988 47.7163 336.497L60.3677 352.247C60.7895 352.771 61.3236 353.195 61.9308 353.486C62.538 353.777 63.2027 353.928 63.876 353.928H172.124C172.797 353.928 173.462 353.777 174.069 353.486C174.676 353.195 175.211 352.771 175.632 352.247L188.284 336.497C208.837 310.987 218.821 278.564 216.176 245.912L213.971 218.18C213.881 217.051 213.37 215.998 212.538 215.231C211.707 214.463 210.617 214.036 209.485 214.036H183.996C183.226 204.743 182.656 195.713 182.288 186.944C193.66 186.12 204.34 181.175 212.325 173.037C221.639 163.723 226.728 151.326 226.288 139.024C226.247 137.887 225.778 136.808 224.973 136.003C224.168 135.199 223.089 134.729 221.952 134.688C209.651 134.256 197.252 139.338 187.939 148.65C185.585 151.004 183.475 153.588 181.639 156.364C181.651 144.031 181.993 132.476 182.543 121.82C182.793 121.825 183.042 121.842 183.292 121.842C194.402 121.71 205.105 117.642 213.498 110.361C223.524 101.82 229.586 89.8692 230.13 77.5709C230.181 76.4341 229.798 75.3205 229.061 74.4543C228.323 73.5881 227.284 73.0336 226.154 72.9025C213.926 71.4816 201.162 75.5665 191.135 84.1066C188.878 86.0334 186.798 88.1588 184.92 90.4573C186.672 73.0985 188.744 60.0353 190.13 52.3273C192.507 52.8232 194.928 53.074 197.355 53.0757ZM75.5337 155.014C81.6386 148.775 89.7042 144.826 98.3765 143.83C97.2879 152.475 93.3527 160.511 87.1915 166.672C81.0303 172.834 72.9936 176.769 64.3486 177.857C65.3454 169.185 69.2947 161.119 75.5337 155.014ZM72.7568 88.2573C78.345 81.551 86.0697 76.9708 94.6348 75.2852C94.2394 83.9894 90.958 92.3145 85.3081 98.9476C79.6582 105.581 71.9612 110.145 63.4307 111.92C63.7318 103.196 67.0248 94.8408 72.7568 88.2573ZM56.59 22.8497C59.7444 17.3137 64.597 12.9401 70.43 10.3761C71.0125 16.7114 69.604 23.0706 66.4007 28.5674C63.1975 34.0642 58.3591 38.4247 52.56 41.0411C51.9152 34.7019 53.3282 28.3235 56.59 22.8497ZM23.5017 39.8771C17.9658 36.7223 13.5924 31.8694 11.0285 26.0362C17.3638 25.4538 23.7229 26.8624 29.2196 30.0657C34.7163 33.2689 39.0767 38.1072 41.6931 43.9062C35.3539 44.5524 28.9753 43.1397 23.5017 39.8771ZM28.3381 103.509C21.6317 97.9209 17.0514 90.1962 15.3659 81.631C24.0702 82.0264 32.3953 85.3077 39.0285 90.9576C45.6617 96.6075 50.2257 104.305 52.0007 112.835C43.2765 112.534 34.9217 109.241 28.3381 103.509ZM30.0393 166.673C23.8002 160.567 19.8509 152.502 18.854 143.83C27.499 144.918 35.5357 148.853 41.6969 155.014C47.8581 161.175 51.7932 169.212 52.8818 177.857C44.2097 176.861 36.1444 172.912 30.0393 166.673ZM181.267 330.861L169.967 344.928H66.0332L54.7332 330.861C36.5203 308.255 27.2061 279.767 28.5464 250.769H207.454C208.794 279.767 199.48 308.255 181.267 330.861ZM206.818 241.769H29.182L30.6714 223.036H56.13H56.1409H56.1461H179.854H179.859H179.87H205.329L206.818 241.769ZM196.972 90.9576C203.555 85.2252 211.91 81.9321 220.635 81.631C218.86 90.1616 214.296 97.8587 207.663 103.509C201.029 109.159 192.704 112.44 184 112.835C185.685 104.27 190.266 96.5456 196.972 90.9576ZM206.781 30.0655C212.255 26.804 218.633 25.3914 224.972 26.0367C222.356 31.8358 217.995 36.6741 212.498 39.8773C207.002 43.0804 200.643 44.4887 194.307 43.9059C196.871 38.0728 201.245 33.2201 206.781 30.0655ZM169.599 28.5675C166.338 23.0936 164.925 16.7152 165.57 10.376C171.369 12.9925 176.207 17.353 179.411 22.8497C182.614 28.3465 184.023 34.7057 183.44 41.041C177.607 38.4773 172.754 34.1038 169.599 28.5675ZM150.692 98.9475C144.96 92.364 141.667 84.009 141.365 75.2849C149.896 77.0597 157.593 81.6236 163.243 88.2569C168.893 94.8902 172.174 103.215 172.569 111.92C164.004 110.234 156.28 105.654 150.692 98.9475ZM148.809 166.672C142.57 160.567 138.621 152.502 137.624 143.83C146.268 144.918 154.305 148.853 160.466 155.014C166.628 161.175 170.563 169.212 171.651 177.857C162.979 176.861 154.914 172.911 148.809 166.672ZM194.303 155.014C200.408 148.775 208.474 144.826 217.146 143.83C216.057 152.475 212.122 160.511 205.961 166.672C199.8 172.833 191.763 176.769 183.118 177.857C184.115 169.185 188.064 161.119 194.303 155.014Z"/>
</mask>
<path d="M197.355 53.0757C204.277 53.0357 211.065 51.1649 217.03 47.6533C221.533 45.104 225.466 41.6583 228.586 37.5289C231.705 33.3996 233.944 28.6745 235.166 23.6455C235.416 22.5356 235.237 21.372 234.664 20.3889C234.091 19.4058 233.167 18.6761 232.078 18.3467C227.101 16.9296 221.886 16.5484 216.755 17.2265C211.625 17.9045 206.688 19.6276 202.25 22.2891C198.346 24.5579 194.854 27.4712 191.923 30.9055C191.066 26.4726 189.464 22.2167 187.187 18.3184C184.637 13.8146 181.192 9.8815 177.062 6.76206C172.933 3.64263 168.208 1.40318 163.179 0.182114C162.069 -0.0683358 160.905 0.110901 159.922 0.683762C158.939 1.25662 158.209 2.18058 157.88 3.26971C156.463 8.24708 156.082 13.4621 156.76 18.5926C157.438 23.7231 159.161 28.66 161.823 33.0983C166.222 40.7862 173.138 46.7211 181.405 49.9011C179.943 57.8293 177.683 71.7786 175.807 90.7051C174.189 87.7571 172.275 84.9815 170.095 82.4211C161.554 72.3942 149.603 66.3322 137.305 65.7888C136.168 65.7392 135.055 66.1218 134.189 66.8595C133.323 67.5971 132.768 68.6353 132.636 69.7653C131.216 81.9938 135.3 94.757 143.84 104.783C151.339 113.768 161.938 119.608 173.538 121.149C173.004 131.604 172.657 143.162 172.638 155.644C170.92 153.14 168.976 150.799 166.831 148.65C157.518 139.337 145.127 134.257 132.818 134.687C131.681 134.728 130.601 135.198 129.797 136.002C128.992 136.807 128.522 137.886 128.482 139.024C128.042 151.325 133.131 163.723 142.444 173.036C150.619 181.377 161.622 186.352 173.284 186.98C173.658 195.706 174.218 204.724 174.964 214.035H61.0358C61.7968 204.735 62.3568 195.717 62.7158 186.98C74.3777 186.352 85.3809 181.377 93.5558 173.036C102.869 163.723 107.959 151.325 107.519 139.024C107.478 137.886 107.008 136.807 106.204 136.002C105.399 135.198 104.319 134.728 103.182 134.687C90.881 134.256 78.483 139.337 69.1695 148.65C67.024 150.799 65.0802 153.14 63.3626 155.644C63.3434 143.162 62.9963 131.604 62.4618 121.149C74.0623 119.608 84.6614 113.768 92.16 104.784C100.701 94.7573 104.784 81.9937 103.364 69.7656C103.233 68.6351 102.679 67.5962 101.813 66.8583C100.946 66.1204 99.8325 65.7383 98.6956 65.7891C86.3978 66.3325 74.4456 72.3945 65.9056 82.4214C63.7254 84.9818 61.8115 87.7574 60.1934 90.7054C58.3176 71.7789 56.0576 57.8296 54.5956 49.9014C62.8624 46.7214 69.7789 40.7865 74.1775 33.0986C76.839 28.6603 78.562 23.7233 79.2401 18.5927C79.9182 13.4622 79.537 8.2471 78.12 3.26971C77.7909 2.18041 77.0613 1.25627 76.0781 0.68332C75.095 0.110372 73.9312 -0.0688268 72.8212 0.181809C67.7922 1.40288 63.067 3.64233 58.9377 6.76177C54.8083 9.8812 51.3626 13.8143 48.8134 18.3181C46.5355 22.2164 44.9341 26.4723 44.0771 30.9052C41.1458 27.4709 37.6543 24.5576 33.7504 22.2888C29.3121 19.6274 24.3752 17.9044 19.2447 17.2263C14.1142 16.5482 8.89917 16.9295 3.92183 18.3464C2.83272 18.6758 1.90879 19.4055 1.33597 20.3886C0.763142 21.3717 0.583937 22.5353 0.834425 23.6452C2.05542 28.6742 4.29477 33.3994 7.41408 37.5288C10.5334 41.6582 14.4664 45.104 18.97 47.6533C24.9348 51.1651 31.7227 53.0359 38.6443 53.0757C41.0753 53.0737 43.4996 52.822 45.8791 52.3247C47.2812 60.0586 49.3783 73.1688 51.1305 90.5186C49.2395 88.1964 47.1422 86.05 44.8641 84.106C34.8372 75.566 22.0774 71.4829 9.84553 72.9019C8.71523 73.033 7.67657 73.5875 6.93872 74.4537C6.20086 75.3199 5.81861 76.4335 5.86892 77.5703C6.41292 89.8687 12.4754 101.82 22.5018 110.36C30.8942 117.641 41.5974 121.71 52.7073 121.841C52.9665 121.841 53.2253 121.824 53.4844 121.819C54.0158 132.277 54.3566 143.855 54.363 156.368C52.5269 153.59 50.4155 151.004 48.0608 148.65C38.7483 139.337 26.3562 134.257 14.0481 134.687C12.911 134.728 11.8315 135.198 11.0269 136.003C10.2223 136.807 9.75237 137.887 9.71173 139.024C9.27173 151.325 14.3611 163.723 23.6746 173.037C31.6587 181.175 42.338 186.12 53.7087 186.943C53.3305 195.677 52.7619 204.708 52.0027 214.036H26.5151C25.3834 214.036 24.2932 214.462 23.4618 215.23C22.6304 215.998 22.119 217.051 22.0293 218.179L19.8242 245.912C17.1794 278.565 27.1627 310.988 47.7163 336.497L60.3677 352.247C60.7895 352.771 61.3236 353.195 61.9308 353.486C62.538 353.777 63.2027 353.928 63.876 353.928H172.124C172.797 353.928 173.462 353.777 174.069 353.486C174.676 353.195 175.211 352.771 175.632 352.247L188.284 336.497C208.837 310.987 218.821 278.564 216.176 245.912L213.971 218.18C213.881 217.051 213.37 215.998 212.538 215.231C211.707 214.463 210.617 214.036 209.485 214.036H183.996C183.226 204.743 182.656 195.713 182.288 186.944C193.66 186.12 204.34 181.175 212.325 173.037C221.639 163.723 226.728 151.326 226.288 139.024C226.247 137.887 225.778 136.808 224.973 136.003C224.168 135.199 223.089 134.729 221.952 134.688C209.651 134.256 197.252 139.338 187.939 148.65C185.585 151.004 183.475 153.588 181.639 156.364C181.651 144.031 181.993 132.476 182.543 121.82C182.793 121.825 183.042 121.842 183.292 121.842C194.402 121.71 205.105 117.642 213.498 110.361C223.524 101.82 229.586 89.8692 230.13 77.5709C230.181 76.4341 229.798 75.3205 229.061 74.4543C228.323 73.5881 227.284 73.0336 226.154 72.9025C213.926 71.4816 201.162 75.5665 191.135 84.1066C188.878 86.0334 186.798 88.1588 184.92 90.4573C186.672 73.0985 188.744 60.0353 190.13 52.3273C192.507 52.8232 194.928 53.074 197.355 53.0757ZM75.5337 155.014C81.6386 148.775 89.7042 144.826 98.3765 143.83C97.2879 152.475 93.3527 160.511 87.1915 166.672C81.0303 172.834 72.9936 176.769 64.3486 177.857C65.3454 169.185 69.2947 161.119 75.5337 155.014ZM72.7568 88.2573C78.345 81.551 86.0697 76.9708 94.6348 75.2852C94.2394 83.9894 90.958 92.3145 85.3081 98.9476C79.6582 105.581 71.9612 110.145 63.4307 111.92C63.7318 103.196 67.0248 94.8408 72.7568 88.2573ZM56.59 22.8497C59.7444 17.3137 64.597 12.9401 70.43 10.3761C71.0125 16.7114 69.604 23.0706 66.4007 28.5674C63.1975 34.0642 58.3591 38.4247 52.56 41.0411C51.9152 34.7019 53.3282 28.3235 56.59 22.8497ZM23.5017 39.8771C17.9658 36.7223 13.5924 31.8694 11.0285 26.0362C17.3638 25.4538 23.7229 26.8624 29.2196 30.0657C34.7163 33.2689 39.0767 38.1072 41.6931 43.9062C35.3539 44.5524 28.9753 43.1397 23.5017 39.8771ZM28.3381 103.509C21.6317 97.9209 17.0514 90.1962 15.3659 81.631C24.0702 82.0264 32.3953 85.3077 39.0285 90.9576C45.6617 96.6075 50.2257 104.305 52.0007 112.835C43.2765 112.534 34.9217 109.241 28.3381 103.509ZM30.0393 166.673C23.8002 160.567 19.8509 152.502 18.854 143.83C27.499 144.918 35.5357 148.853 41.6969 155.014C47.8581 161.175 51.7932 169.212 52.8818 177.857C44.2097 176.861 36.1444 172.912 30.0393 166.673ZM181.267 330.861L169.967 344.928H66.0332L54.7332 330.861C36.5203 308.255 27.2061 279.767 28.5464 250.769H207.454C208.794 279.767 199.48 308.255 181.267 330.861ZM206.818 241.769H29.182L30.6714 223.036H56.13H56.1409H56.1461H179.854H179.859H179.87H205.329L206.818 241.769ZM196.972 90.9576C203.555 85.2252 211.91 81.9321 220.635 81.631C218.86 90.1616 214.296 97.8587 207.663 103.509C201.029 109.159 192.704 112.44 184 112.835C185.685 104.27 190.266 96.5456 196.972 90.9576ZM206.781 30.0655C212.255 26.804 218.633 25.3914 224.972 26.0367C222.356 31.8358 217.995 36.6741 212.498 39.8773C207.002 43.0804 200.643 44.4887 194.307 43.9059C196.871 38.0728 201.245 33.2201 206.781 30.0655ZM169.599 28.5675C166.338 23.0936 164.925 16.7152 165.57 10.376C171.369 12.9925 176.207 17.353 179.411 22.8497C182.614 28.3465 184.023 34.7057 183.44 41.041C177.607 38.4773 172.754 34.1038 169.599 28.5675ZM150.692 98.9475C144.96 92.364 141.667 84.009 141.365 75.2849C149.896 77.0597 157.593 81.6236 163.243 88.2569C168.893 94.8902 172.174 103.215 172.569 111.92C164.004 110.234 156.28 105.654 150.692 98.9475ZM148.809 166.672C142.57 160.567 138.621 152.502 137.624 143.83C146.268 144.918 154.305 148.853 160.466 155.014C166.628 161.175 170.563 169.212 171.651 177.857C162.979 176.861 154.914 172.911 148.809 166.672ZM194.303 155.014C200.408 148.775 208.474 144.826 217.146 143.83C216.057 152.475 212.122 160.511 205.961 166.672C199.8 172.833 191.763 176.769 183.118 177.857C184.115 169.185 188.064 161.119 194.303 155.014Z" fill="#121212" stroke="#F8F8F8" stroke-width="4" mask="url(#path-1-inside-1_301_1821)"/>
</svg>
