<svg width="175" height="174" viewBox="0 0 175 174" fill="none" xmlns="http://www.w3.org/2000/svg">
<g opacity="0.05">
<mask id="path-1-inside-1_301_1839" fill="white">
<path d="M173.757 68.1901C173.587 67.8832 173.358 67.6131 173.083 67.3955C172.808 67.178 172.493 67.0174 172.155 66.923C164.529 64.7897 155.576 66.0989 147.594 70.5151C142.798 73.1238 138.659 76.7905 135.491 81.2372L135.427 80.9507C133.004 70.0165 133.004 65.8854 135.427 54.9512L137.243 46.7549C137.329 46.3682 137.327 45.9673 137.237 45.5816C137.147 45.1959 136.971 44.8354 136.724 44.5265C136.476 44.2177 136.162 43.9684 135.805 43.7972C135.447 43.6259 135.056 43.537 134.66 43.537H101.739C101.343 43.537 100.952 43.6259 100.594 43.7971C100.237 43.9684 99.9233 44.2177 99.6754 44.5265C99.4275 44.8353 99.2521 45.1959 99.1621 45.5816C99.0721 45.9673 99.0699 46.3682 99.1556 46.7549L100.972 54.9512C103.395 65.8854 103.395 70.0165 100.972 80.9507L99.1556 89.147C99.1461 89.1899 99.1419 89.2331 99.1346 89.2764C99.1262 89.3256 99.116 89.3745 99.1105 89.4243C99.1049 89.474 99.1039 89.5228 99.1012 89.5721C99.0985 89.6215 99.094 89.6702 99.094 89.7196C99.094 89.769 99.0985 89.8179 99.1012 89.867C99.104 89.9162 99.1049 89.9656 99.1105 90.0149C99.116 90.0643 99.1262 90.1136 99.1346 90.1628C99.1419 90.2059 99.1463 90.2491 99.1556 90.2922L100.972 98.4885C103.395 109.423 103.395 113.553 100.972 124.488L99.615 130.611H76.0094L74.6525 124.488C72.2289 113.553 72.2289 109.423 74.6525 98.4885L76.4687 90.2922C76.4782 90.2493 76.4824 90.2061 76.4897 90.1628C76.4981 90.1136 76.5082 90.0647 76.5139 90.0149C76.5195 89.9652 76.5204 89.9163 76.5231 89.867C76.5258 89.8177 76.5303 89.769 76.5303 89.7196C76.5303 89.6702 76.5259 89.6213 76.5231 89.5721C76.5203 89.5229 76.5194 89.4735 76.5139 89.4243C76.5084 89.375 76.4981 89.3256 76.4897 89.2764C76.4824 89.2333 76.478 89.1901 76.4687 89.147L74.6525 80.9507C72.2292 70.0165 72.2292 65.8854 74.6525 54.9512L76.4687 46.7549C76.4782 46.712 76.4824 46.6688 76.4897 46.6255C76.4981 46.5763 76.5082 46.5274 76.5139 46.4777C76.5195 46.428 76.5204 46.3791 76.5231 46.3298C76.5258 46.2805 76.5303 46.2317 76.5303 46.1823C76.5303 46.133 76.5259 46.084 76.5231 46.0349C76.5203 45.9857 76.5194 45.9363 76.5139 45.887C76.5084 45.8377 76.4981 45.7883 76.4897 45.7391C76.4824 45.696 76.478 45.6528 76.4687 45.6097L74.6525 37.4135C72.2289 26.4792 72.2289 22.3485 74.6525 11.4142L76.4687 3.21788C76.5544 2.83122 76.5522 2.43027 76.4622 2.04458C76.3723 1.6589 76.1969 1.29834 75.949 0.989491C75.7011 0.680645 75.387 0.431398 75.0299 0.26014C74.6728 0.0888819 74.2818 -1.62024e-05 73.8858 2.21496e-09H40.9639C40.5679 -7.40146e-06 40.1769 0.0888961 39.8198 0.260158C39.4627 0.43142 39.1486 0.680669 38.9007 0.989513C38.6528 1.29836 38.4774 1.65892 38.3875 2.0446C38.2975 2.43027 38.2953 2.83123 38.381 3.21788L40.1972 11.4142C42.6205 22.3485 42.6205 26.4792 40.1972 37.4135L40.0958 37.8713C36.8767 33.0243 32.5199 29.0391 27.4058 26.2638C19.4237 21.8478 10.4712 20.5391 2.84506 22.6721C2.50729 22.7666 2.19166 22.9272 1.91656 23.1448C1.64145 23.3623 1.41235 23.6324 1.24259 23.9393C1.07284 24.2462 0.965809 24.5838 0.927739 24.9325C0.889669 25.2811 0.921316 25.6339 1.02084 25.9702C3.26705 33.5643 9.13331 40.4516 17.1155 44.8668C22.3187 47.8071 28.1796 49.387 34.1557 49.4603C35.7427 49.4574 37.3267 49.3234 38.8916 49.0598L40.197 54.9511C42.6201 65.8853 42.6201 70.0164 40.197 80.9506L38.3809 89.1469C38.3714 89.1898 38.3672 89.233 38.3598 89.2762C38.3514 89.3255 38.3413 89.3744 38.3357 89.4242C38.3301 89.4739 38.3292 89.5227 38.3264 89.572C38.3237 89.6213 38.3193 89.6701 38.3193 89.7195C38.3193 89.7688 38.3237 89.8177 38.3264 89.8669C38.3292 89.916 38.3302 89.9655 38.3357 90.0148C38.3413 90.0641 38.3514 90.1135 38.3598 90.1627C38.3672 90.2058 38.3716 90.249 38.3809 90.2921L40.197 98.4884C42.6204 109.423 42.6204 113.553 40.197 124.488L38.5648 131.854C24.8238 141.551 17.2739 154.39 17.2739 168.137C17.2739 182.483 25.455 195.794 40.3099 205.616C41.3604 206.298 42.1206 207.345 42.4431 208.555C42.7656 209.765 42.6275 211.051 42.0555 212.165L37.2082 221.488C36.9986 221.892 36.8964 222.342 36.9114 222.796C36.9265 223.251 37.0583 223.693 37.2942 224.082C37.5301 224.47 37.862 224.791 38.2581 225.014C38.6542 225.237 39.101 225.354 39.5555 225.354H136.501C136.955 225.354 137.402 225.237 137.798 225.014C138.194 224.791 138.526 224.47 138.762 224.082C138.998 223.693 139.13 223.251 139.145 222.796C139.16 222.342 139.058 221.892 138.848 221.488L134.001 212.165C133.429 211.051 133.291 209.765 133.614 208.555C133.936 207.345 134.696 206.297 135.747 205.616C150.602 195.794 158.783 182.483 158.783 168.136C158.783 154.221 151.044 141.237 136.981 131.499L135.427 124.487C133.004 113.553 133.004 109.422 135.427 98.4879L136.558 93.386C137.977 93.6005 139.41 93.7092 140.845 93.7113C146.821 93.6375 152.681 92.0576 157.884 89.1178C165.867 84.7023 171.733 77.8147 173.979 70.2209C174.079 69.8846 174.11 69.5318 174.072 69.1832C174.034 68.8345 173.927 68.497 173.757 68.1901ZM106.138 53.8063L105.035 48.8279H131.365L130.262 53.8063C127.684 65.4392 127.684 70.4625 130.262 82.0956L131.365 87.074H105.035L106.138 82.0956C108.715 70.4625 108.716 65.4392 106.138 53.8063ZM106.138 97.3432L105.035 92.3648H131.365L130.262 97.3432C127.684 108.976 127.684 113.999 130.262 125.632L131.365 130.61H105.035L106.138 125.632C108.715 113.999 108.716 108.976 106.138 97.3432ZM45.3633 97.3432L44.2602 92.3648H70.5901L69.4869 97.3432C66.9089 108.976 66.9089 113.999 69.4869 125.632L70.5901 130.61H44.2599L45.363 125.632C47.9409 113.999 47.9412 108.976 45.3633 97.3432ZM45.3633 53.8063L44.2602 48.8279H70.5901L69.4869 53.8063C66.9089 65.4392 66.9089 70.4625 69.4869 82.0956L70.5901 87.074H44.2599L45.363 82.0956C47.9409 70.4625 47.9412 65.4392 45.3633 53.8063ZM45.3633 10.2697L44.2602 5.29125H70.5901L69.4869 10.2697C66.9089 21.9023 66.9089 26.9258 69.4869 38.5585L70.5901 43.5369H44.2599L45.363 38.5585C47.9409 26.9258 47.9412 21.9023 45.3633 10.2697ZM19.677 40.2369C13.8908 37.0365 9.43591 32.3781 7.10198 27.1804C12.7441 26.3926 19.0584 27.6931 24.8449 30.8938C30.6311 34.0939 35.086 38.7528 37.4199 43.9508C31.7761 44.7365 25.4626 43.4375 19.677 40.2369ZM153.492 168.136C153.492 180.649 146.153 192.392 132.829 201.203C130.685 202.603 129.139 204.75 128.488 207.226C127.837 209.703 128.129 212.332 129.307 214.606L132.144 220.063H43.9128L46.7501 214.606C47.9278 212.332 48.2196 209.703 47.5689 207.226C46.9182 204.75 45.3714 202.604 43.2282 201.203C29.9034 192.392 22.565 180.649 22.565 168.137C22.565 156.037 29.4607 144.615 42.0048 135.902H134.052C146.596 144.615 153.492 156.036 153.492 168.136ZM155.323 84.4883C149.537 87.6886 143.224 88.989 137.58 88.2016C139.914 83.0036 144.369 78.3453 150.155 75.1446C155.942 71.9439 162.254 70.6442 167.898 71.4312C165.565 76.629 161.109 81.2873 155.323 84.4883Z"/>
</mask>
<path d="M173.757 68.1901C173.587 67.8832 173.358 67.6131 173.083 67.3955C172.808 67.178 172.493 67.0174 172.155 66.923C164.529 64.7897 155.576 66.0989 147.594 70.5151C142.798 73.1238 138.659 76.7905 135.491 81.2372L135.427 80.9507C133.004 70.0165 133.004 65.8854 135.427 54.9512L137.243 46.7549C137.329 46.3682 137.327 45.9673 137.237 45.5816C137.147 45.1959 136.971 44.8354 136.724 44.5265C136.476 44.2177 136.162 43.9684 135.805 43.7972C135.447 43.6259 135.056 43.537 134.66 43.537H101.739C101.343 43.537 100.952 43.6259 100.594 43.7971C100.237 43.9684 99.9233 44.2177 99.6754 44.5265C99.4275 44.8353 99.2521 45.1959 99.1621 45.5816C99.0721 45.9673 99.0699 46.3682 99.1556 46.7549L100.972 54.9512C103.395 65.8854 103.395 70.0165 100.972 80.9507L99.1556 89.147C99.1461 89.1899 99.1419 89.2331 99.1346 89.2764C99.1262 89.3256 99.116 89.3745 99.1105 89.4243C99.1049 89.474 99.1039 89.5228 99.1012 89.5721C99.0985 89.6215 99.094 89.6702 99.094 89.7196C99.094 89.769 99.0985 89.8179 99.1012 89.867C99.104 89.9162 99.1049 89.9656 99.1105 90.0149C99.116 90.0643 99.1262 90.1136 99.1346 90.1628C99.1419 90.2059 99.1463 90.2491 99.1556 90.2922L100.972 98.4885C103.395 109.423 103.395 113.553 100.972 124.488L99.615 130.611H76.0094L74.6525 124.488C72.2289 113.553 72.2289 109.423 74.6525 98.4885L76.4687 90.2922C76.4782 90.2493 76.4824 90.2061 76.4897 90.1628C76.4981 90.1136 76.5082 90.0647 76.5139 90.0149C76.5195 89.9652 76.5204 89.9163 76.5231 89.867C76.5258 89.8177 76.5303 89.769 76.5303 89.7196C76.5303 89.6702 76.5259 89.6213 76.5231 89.5721C76.5203 89.5229 76.5194 89.4735 76.5139 89.4243C76.5084 89.375 76.4981 89.3256 76.4897 89.2764C76.4824 89.2333 76.478 89.1901 76.4687 89.147L74.6525 80.9507C72.2292 70.0165 72.2292 65.8854 74.6525 54.9512L76.4687 46.7549C76.4782 46.712 76.4824 46.6688 76.4897 46.6255C76.4981 46.5763 76.5082 46.5274 76.5139 46.4777C76.5195 46.428 76.5204 46.3791 76.5231 46.3298C76.5258 46.2805 76.5303 46.2317 76.5303 46.1823C76.5303 46.133 76.5259 46.084 76.5231 46.0349C76.5203 45.9857 76.5194 45.9363 76.5139 45.887C76.5084 45.8377 76.4981 45.7883 76.4897 45.7391C76.4824 45.696 76.478 45.6528 76.4687 45.6097L74.6525 37.4135C72.2289 26.4792 72.2289 22.3485 74.6525 11.4142L76.4687 3.21788C76.5544 2.83122 76.5522 2.43027 76.4622 2.04458C76.3723 1.6589 76.1969 1.29834 75.949 0.989491C75.7011 0.680645 75.387 0.431398 75.0299 0.26014C74.6728 0.0888819 74.2818 -1.62024e-05 73.8858 2.21496e-09H40.9639C40.5679 -7.40146e-06 40.1769 0.0888961 39.8198 0.260158C39.4627 0.43142 39.1486 0.680669 38.9007 0.989513C38.6528 1.29836 38.4774 1.65892 38.3875 2.0446C38.2975 2.43027 38.2953 2.83123 38.381 3.21788L40.1972 11.4142C42.6205 22.3485 42.6205 26.4792 40.1972 37.4135L40.0958 37.8713C36.8767 33.0243 32.5199 29.0391 27.4058 26.2638C19.4237 21.8478 10.4712 20.5391 2.84506 22.6721C2.50729 22.7666 2.19166 22.9272 1.91656 23.1448C1.64145 23.3623 1.41235 23.6324 1.24259 23.9393C1.07284 24.2462 0.965809 24.5838 0.927739 24.9325C0.889669 25.2811 0.921316 25.6339 1.02084 25.9702C3.26705 33.5643 9.13331 40.4516 17.1155 44.8668C22.3187 47.8071 28.1796 49.387 34.1557 49.4603C35.7427 49.4574 37.3267 49.3234 38.8916 49.0598L40.197 54.9511C42.6201 65.8853 42.6201 70.0164 40.197 80.9506L38.3809 89.1469C38.3714 89.1898 38.3672 89.233 38.3598 89.2762C38.3514 89.3255 38.3413 89.3744 38.3357 89.4242C38.3301 89.4739 38.3292 89.5227 38.3264 89.572C38.3237 89.6213 38.3193 89.6701 38.3193 89.7195C38.3193 89.7688 38.3237 89.8177 38.3264 89.8669C38.3292 89.916 38.3302 89.9655 38.3357 90.0148C38.3413 90.0641 38.3514 90.1135 38.3598 90.1627C38.3672 90.2058 38.3716 90.249 38.3809 90.2921L40.197 98.4884C42.6204 109.423 42.6204 113.553 40.197 124.488L38.5648 131.854C24.8238 141.551 17.2739 154.39 17.2739 168.137C17.2739 182.483 25.455 195.794 40.3099 205.616C41.3604 206.298 42.1206 207.345 42.4431 208.555C42.7656 209.765 42.6275 211.051 42.0555 212.165L37.2082 221.488C36.9986 221.892 36.8964 222.342 36.9114 222.796C36.9265 223.251 37.0583 223.693 37.2942 224.082C37.5301 224.47 37.862 224.791 38.2581 225.014C38.6542 225.237 39.101 225.354 39.5555 225.354H136.501C136.955 225.354 137.402 225.237 137.798 225.014C138.194 224.791 138.526 224.47 138.762 224.082C138.998 223.693 139.13 223.251 139.145 222.796C139.16 222.342 139.058 221.892 138.848 221.488L134.001 212.165C133.429 211.051 133.291 209.765 133.614 208.555C133.936 207.345 134.696 206.297 135.747 205.616C150.602 195.794 158.783 182.483 158.783 168.136C158.783 154.221 151.044 141.237 136.981 131.499L135.427 124.487C133.004 113.553 133.004 109.422 135.427 98.4879L136.558 93.386C137.977 93.6005 139.41 93.7092 140.845 93.7113C146.821 93.6375 152.681 92.0576 157.884 89.1178C165.867 84.7023 171.733 77.8147 173.979 70.2209C174.079 69.8846 174.11 69.5318 174.072 69.1832C174.034 68.8345 173.927 68.497 173.757 68.1901ZM106.138 53.8063L105.035 48.8279H131.365L130.262 53.8063C127.684 65.4392 127.684 70.4625 130.262 82.0956L131.365 87.074H105.035L106.138 82.0956C108.715 70.4625 108.716 65.4392 106.138 53.8063ZM106.138 97.3432L105.035 92.3648H131.365L130.262 97.3432C127.684 108.976 127.684 113.999 130.262 125.632L131.365 130.61H105.035L106.138 125.632C108.715 113.999 108.716 108.976 106.138 97.3432ZM45.3633 97.3432L44.2602 92.3648H70.5901L69.4869 97.3432C66.9089 108.976 66.9089 113.999 69.4869 125.632L70.5901 130.61H44.2599L45.363 125.632C47.9409 113.999 47.9412 108.976 45.3633 97.3432ZM45.3633 53.8063L44.2602 48.8279H70.5901L69.4869 53.8063C66.9089 65.4392 66.9089 70.4625 69.4869 82.0956L70.5901 87.074H44.2599L45.363 82.0956C47.9409 70.4625 47.9412 65.4392 45.3633 53.8063ZM45.3633 10.2697L44.2602 5.29125H70.5901L69.4869 10.2697C66.9089 21.9023 66.9089 26.9258 69.4869 38.5585L70.5901 43.5369H44.2599L45.363 38.5585C47.9409 26.9258 47.9412 21.9023 45.3633 10.2697ZM19.677 40.2369C13.8908 37.0365 9.43591 32.3781 7.10198 27.1804C12.7441 26.3926 19.0584 27.6931 24.8449 30.8938C30.6311 34.0939 35.086 38.7528 37.4199 43.9508C31.7761 44.7365 25.4626 43.4375 19.677 40.2369ZM153.492 168.136C153.492 180.649 146.153 192.392 132.829 201.203C130.685 202.603 129.139 204.75 128.488 207.226C127.837 209.703 128.129 212.332 129.307 214.606L132.144 220.063H43.9128L46.7501 214.606C47.9278 212.332 48.2196 209.703 47.5689 207.226C46.9182 204.75 45.3714 202.604 43.2282 201.203C29.9034 192.392 22.565 180.649 22.565 168.137C22.565 156.037 29.4607 144.615 42.0048 135.902H134.052C146.596 144.615 153.492 156.036 153.492 168.136ZM155.323 84.4883C149.537 87.6886 143.224 88.989 137.58 88.2016C139.914 83.0036 144.369 78.3453 150.155 75.1446C155.942 71.9439 162.254 70.6442 167.898 71.4312C165.565 76.629 161.109 81.2873 155.323 84.4883Z" fill="#121212" stroke="#F8F8F8" stroke-width="3" mask="url(#path-1-inside-1_301_1839)"/>
</g>
</svg>
