<svg width="160" height="163" viewBox="0 0 160 163" fill="none" xmlns="http://www.w3.org/2000/svg">
<path d="M123.372 32.8313L123.344 31.4658C123.12 20.5597 121.345 10.9032 118.047 3.37234L118.734 3.07149L118.047 3.37234C117.909 3.05816 117.702 2.77949 117.441 2.55752L117.926 1.98577L117.441 2.55751C117.179 2.33554 116.87 2.17611 116.538 2.09134C116.206 2.00657 115.859 1.99869 115.523 2.06831C115.187 2.13793 114.871 2.28321 114.6 2.4931L114.141 1.89994L114.6 2.49312C107.493 7.99189 100.771 16.592 95.0083 27.3009L94.1762 28.8473L93.6344 27.1769C90.4371 17.3189 86.2667 8.90553 81.2981 2.5371C81.0872 2.26674 80.8173 2.04801 80.5091 1.89757C80.2009 1.74713 79.8625 1.66895 79.5196 1.66895C79.1766 1.66895 78.8382 1.74713 78.53 1.89757C78.2218 2.04801 77.952 2.26673 77.741 2.53711M123.372 32.8313L77.741 2.53711M123.372 32.8313L124.509 32.0748C134.316 25.5513 145.006 20.4643 156.254 16.9687C156.757 16.8315 157.292 16.8727 157.769 17.0854C158.248 17.2994 158.638 17.6738 158.871 18.1441C159.104 18.6149 159.166 19.1523 159.045 19.6635C158.924 20.1747 158.629 20.6277 158.21 20.9444C153.643 24.3947 149.55 29.6425 145.922 35.7875C142.29 41.9397 139.099 49.0346 136.353 56.2226C130.861 70.5983 127.125 85.4082 125.198 93.9295L125.138 94.1966L125.264 94.4397C134.087 111.485 138.853 130.339 139.189 149.53C139.526 168.72 135.424 187.728 127.205 205.071C126.435 206.648 125.238 207.976 123.75 208.906C122.261 209.836 120.54 210.33 118.785 210.331H40.2153C38.4593 210.33 36.7388 209.836 35.2497 208.906C33.7617 207.976 32.5644 206.648 31.794 205.071C23.558 187.692 19.4569 168.641 19.8119 149.412C20.1669 130.182 24.9687 111.296 33.8412 94.2316C33.8416 94.2308 33.8419 94.2301 33.8423 94.2293L34.4284 93.1209L34.559 92.8739L34.4961 92.6016C32.4396 83.6957 28.6654 69.1303 23.2241 55.1383C17.7994 41.1889 10.6575 27.6442 1.78998 20.9444L1.78989 20.9443C1.37068 20.6277 1.07513 20.1746 0.954228 19.6634C0.833326 19.1521 0.894658 18.6147 1.12764 18.1438C1.36063 17.6729 1.75066 17.2981 2.23044 17.0841C2.70715 16.8714 3.24276 16.8307 3.74599 16.9686C14.6365 20.3486 25.0046 25.2253 34.5531 31.4587L35.6779 32.193L35.7128 30.8501C35.9896 20.1965 37.7563 10.7603 40.9918 3.37236L40.9918 3.37233C41.1293 3.05816 41.3367 2.77949 41.5982 2.55751C41.8597 2.33554 42.1683 2.17611 42.5006 2.09134C42.833 2.00657 43.1803 1.99869 43.5161 2.06831C43.8519 2.13793 44.1675 2.28321 44.4387 2.4931L44.4387 2.49312C51.5447 7.99124 58.2665 16.5898 64.0283 27.2965L64.8602 28.8424L65.4021 27.1726C68.6005 17.3166 72.7727 8.90549 77.741 2.53711M123.372 32.8313L77.1497 2.07575L77.741 2.53711M24.3026 151.682C24.3058 163.383 26.0076 175.022 29.3547 186.235L29.5489 186.885L30.2153 186.756C30.3191 186.736 30.4242 186.725 30.5298 186.722L128.39 186.722C128.391 186.722 128.391 186.722 128.392 186.722C128.519 186.723 128.646 186.737 128.771 186.763L129.445 186.903L129.642 186.243C132.991 175.028 134.694 163.387 134.697 151.683C134.739 133.027 130.392 114.623 122.007 97.9568L121.799 97.5439H121.337H37.6621H37.1999L36.9921 97.9568C28.6077 114.622 24.2608 133.026 24.3026 151.682ZM24.3026 151.682C24.3026 151.682 24.3026 151.682 24.3026 151.681L25.0526 151.681M24.3026 151.682C24.3026 151.682 24.3026 151.683 24.3026 151.683L25.0526 151.681M25.0526 151.681C25.011 133.143 29.3305 114.855 37.6621 98.2939M25.0526 151.681C25.0557 163.31 26.7469 174.877 30.0734 186.02C30.221 185.992 30.3707 185.976 30.5209 185.972L37.6621 98.2939M37.6621 98.2939H121.337H37.6621ZM115.405 9.09185L115.037 7.97809L114.18 8.77949C107.554 14.9788 101.318 24.2045 96.1159 35.1992L96.0018 35.4405L96.0657 35.6996C97.479 41.427 98.5646 47.2304 99.3174 53.0814L99.5404 54.8147L100.643 53.4589C105.868 47.0348 111.865 41.2787 118.497 36.3207L118.792 36.1003L118.798 35.7321C118.961 25.6396 117.84 16.4623 115.405 9.09185ZM80.1465 8.67682L79.5198 7.72323L78.893 8.67683C68.8067 24.0232 62.7027 49.717 62.7027 77.1351C62.7027 82.292 62.9324 87.3753 63.3498 92.345L63.4076 93.0322H64.0972H94.9425H95.6321L95.6898 92.345C96.1073 87.3753 96.337 82.292 96.337 77.1351C96.337 49.717 90.2329 24.023 80.1465 8.67682ZM44.8592 8.7795L44.0027 7.97809L43.6346 9.09185C41.2582 16.2839 40.1338 25.1963 40.2318 35L40.2355 35.3759L40.5389 35.5978C47.1968 40.4689 53.2395 46.1293 58.5346 52.4552L59.6257 53.7585L59.853 52.0741C60.5968 46.5632 61.6382 41.0966 62.9727 35.6982L63.0368 35.4389L62.9225 35.1974C57.7207 24.2036 51.4847 14.9786 44.8592 8.7795ZM58.9009 60.6416L58.9248 60.3658L58.7638 60.1405C45.7922 41.9949 26.7997 31.2925 14.5825 25.8734L12.0157 24.7349L13.673 27.0017C20.5128 36.357 26.0377 48.989 30.2756 61.1751C34.5098 73.3506 37.4421 85.0297 39.1144 92.4471L39.2463 93.0322H39.8461H58.0575H58.8699L58.8051 92.2224C58.4115 87.3014 58.1912 82.2671 58.1912 77.1351C58.1912 71.5163 58.4348 66.0021 58.9009 60.6416ZM123.135 203.125L123.139 203.117C124.837 199.57 126.351 195.939 127.673 192.236L128.032 191.234H126.967H32.0328H30.9684L31.3265 192.236C32.6494 195.939 34.1628 199.571 35.8608 203.117L35.8648 203.125C36.2655 203.937 36.886 204.619 37.6557 205.096L38.0503 204.458L37.6557 205.096C38.4254 205.572 39.3133 205.822 40.2183 205.819H118.781C119.687 205.822 120.575 205.572 121.344 205.095C122.114 204.619 122.734 203.936 123.135 203.125ZM120.154 93.0322H120.753L120.885 92.4471C122.557 85.0317 125.488 73.357 129.721 61.1852C133.957 49.0027 139.479 36.3734 146.316 27.0168L147.973 24.7479L145.405 25.8889C133.103 31.3553 113.937 42.165 100.986 60.4847L100.849 60.6793V60.9177V92.2822V93.0322H101.599H120.154Z" fill="#121212" stroke="#F8F8F8" stroke-width="1.5"/>
</svg>
