<svg width="310" height="164" viewBox="0 0 310 164" fill="none" xmlns="http://www.w3.org/2000/svg">
<path d="M307.775 29.1245C306.713 27.7142 305.29 26.616 303.657 25.9451C302.024 25.2742 300.24 25.0553 298.493 25.3115C265.319 30.1701 234.369 44.5837 207.007 67.6423C206.317 65.236 205.478 62.8751 204.495 60.5732C202.801 56.3823 201.049 52.0488 201.879 48.9609C202.519 46.5776 205.845 43.9453 209.061 41.3999C213.05 38.2431 217.57 34.665 219.614 29.667C221.439 25.2041 220.757 20.0879 220.097 15.1406C219.704 12.7129 219.493 10.2595 219.463 7.80057C219.492 6.43192 219.145 5.08148 218.459 3.89666C217.774 2.71183 216.776 1.73815 215.574 1.08188C214.364 0.411506 212.993 0.0863109 211.61 0.141751C210.228 0.197192 208.887 0.63114 207.734 1.39628C183.309 17.5857 165.376 41.7843 154.99 72.2499C144.603 41.7899 126.687 17.5834 102.266 1.39628C101.113 0.630776 99.772 0.196656 98.3892 0.141301C97.0064 0.0859461 95.635 0.411479 94.4246 1.08237C93.2234 1.73876 92.2256 2.71242 91.5399 3.89712C90.8543 5.08183 90.5071 6.43207 90.5364 7.80057C90.5061 10.2595 90.2942 12.7128 89.9026 15.1406C89.2426 20.0878 88.5598 25.2031 90.385 29.666C92.4285 34.6645 96.95 38.2426 100.939 41.3999C104.155 43.9453 107.481 46.5771 108.121 48.9604C108.951 52.0483 107.199 56.3823 105.505 60.5732C104.522 62.8749 103.683 65.2358 102.993 67.642C75.6302 44.5832 44.6806 30.1696 11.5061 25.311C9.75976 25.0561 7.97705 25.2754 6.34452 25.9458C4.712 26.6162 3.28968 27.713 2.22643 29.1216C1.16318 30.5302 0.49808 32.1986 0.300754 33.9524C0.103428 35.7061 0.381121 37.4807 1.10478 39.0903C2.27423 41.8394 3.3045 44.6457 4.19168 47.4985C6.30588 53.8955 8.49168 60.5102 13.1517 64.6879C18.4198 69.4106 25.7117 71.0234 32.7626 72.5834C38.9105 73.9434 44.7172 75.228 47.3626 78.2788C50.68 82.1044 51.1419 88.9223 51.5887 95.5161C52.0359 102.118 52.4987 108.945 55.8411 114.041C59.824 120.111 66.8128 123.804 72.9788 127.062C78.4378 129.948 83.594 132.672 85.2132 136.108C87.6819 141.348 86.1032 148.434 84.5765 155.288C83.77 158.557 83.1821 161.876 82.8165 165.222H73.176C71.9825 165.222 70.8379 165.696 69.994 166.54C69.1501 167.384 68.676 168.529 68.676 169.722V188.187C68.6646 223.871 74.4834 259.317 85.9025 293.124L91.9679 311.101H84.216C83.0225 311.101 81.8779 311.575 81.034 312.419C80.1901 313.263 79.716 314.407 79.716 315.601V343.364C79.716 344.558 80.1901 345.703 81.034 346.546C81.8779 347.39 83.0225 347.864 84.216 347.864H225.784C226.978 347.864 228.122 347.39 228.966 346.546C229.81 345.703 230.284 344.558 230.284 343.364V315.601C230.284 314.407 229.81 313.263 228.966 312.419C228.122 311.575 226.978 311.101 225.784 311.101H218.033L224.099 293.124C235.517 259.317 241.336 223.871 241.324 188.187V169.723C241.324 168.529 240.85 167.385 240.006 166.541C239.162 165.697 238.018 165.223 236.824 165.223H227.184C226.819 161.876 226.231 158.557 225.424 155.288C223.898 148.435 222.319 141.348 224.787 136.108C226.407 132.672 231.563 129.947 237.022 127.063C243.188 123.804 250.176 120.111 254.16 114.041C257.502 108.945 257.965 102.118 258.411 95.5163C258.859 88.9225 259.32 82.1046 262.637 78.279C265.283 75.2282 271.089 73.9435 277.238 72.5836C284.289 71.0236 291.58 69.4108 296.848 64.6881C301.508 60.5104 303.694 53.8952 305.808 47.4981C306.695 44.6458 307.726 41.8398 308.895 39.0909C309.619 37.482 309.898 35.7078 309.701 33.9543C309.504 32.2007 308.839 30.5325 307.775 29.1245ZM210.527 10.3774C210.649 12.3818 210.916 14.3794 211.176 16.331C211.68 20.1093 212.201 24.0166 211.284 26.2602C210.134 29.0732 206.749 31.7524 203.476 34.3427C199.112 37.7963 194.601 41.3676 193.187 46.625C191.574 52.625 194.006 58.6396 196.15 63.9463C197.553 67.4155 199.003 71.0029 198.702 73.3222C198.588 74.1022 198.378 74.8653 198.079 75.5946C186.407 86.639 175.818 98.7732 166.454 111.832C162.262 117.637 158.458 123.368 155.004 128.921C154.659 128.366 154.293 127.801 153.941 127.243C154.371 118.48 155.351 109.753 156.876 101.114C164.098 60.5986 182.141 30.0874 210.527 10.3774ZM111.297 73.3222C110.997 71.0034 112.447 67.416 113.849 63.9467C115.994 58.6401 118.426 52.6255 116.813 46.625C115.4 41.3676 110.888 37.7963 106.524 34.3427C103.25 31.7527 99.8657 29.0727 98.7153 26.2602C97.7983 24.0171 98.3193 20.1102 98.8237 16.331C99.0837 14.3794 99.3506 12.3818 99.4726 10.3764C124.766 27.9404 141.843 54.0932 150.373 88.2539C149.489 91.9397 148.703 95.6999 148.015 99.5346C147.055 104.92 146.352 110.122 145.838 115.069C145.083 113.992 144.327 112.914 143.545 111.832C134.182 98.7732 123.592 86.6388 111.92 75.5944C111.621 74.8651 111.412 74.1021 111.297 73.3222ZM93.3545 132.272C90.4545 126.119 83.708 122.553 77.1836 119.106C71.7236 116.22 66.0776 113.237 63.3662 109.104C61.3179 105.982 60.9536 100.603 60.5679 94.908C60.0464 87.2112 59.4556 78.488 54.1621 72.3831C49.5674 67.0837 42.0127 65.4124 34.7065 63.7961C28.7886 62.4871 22.6694 61.1331 19.1597 57.9871C16.2851 55.4099 14.562 50.1956 12.7378 44.6746C11.7562 41.5243 10.6124 38.4268 9.31098 35.3946C9.25027 35.2568 9.22749 35.1052 9.24498 34.9557C9.26246 34.8061 9.3196 34.6639 9.41046 34.5439C9.50132 34.4238 9.62261 34.3302 9.76178 34.2727C9.90096 34.2152 10.053 34.1959 10.2021 34.2169C37.1294 38.1602 62.4365 48.5875 85.4204 65.2086C103.905 78.5757 120.955 95.9639 136.096 116.889C147.023 132.087 156.514 148.268 164.445 165.223H91.8661C92.2259 162.54 92.7248 159.877 93.3608 157.246C95.1301 149.302 97.1362 140.298 93.3545 132.272ZM221.284 338.864H88.7153V320.101H221.284L221.284 338.864ZM232.324 188.187C232.336 222.892 226.677 257.366 215.572 290.247L208.535 311.101H101.465L94.4292 290.247C83.3232 257.367 77.6641 222.893 77.6753 188.187V174.223H232.324L232.324 188.187ZM300.69 35.3943C299.388 38.4264 298.244 41.5239 297.263 44.6743C295.439 50.1953 293.715 55.4096 290.84 57.9873C287.33 61.1333 281.211 62.4873 275.293 63.7963C267.988 65.4126 260.433 67.0839 255.838 72.3828C250.544 78.4878 249.953 87.2114 249.432 94.9082C249.047 100.603 248.683 105.982 246.634 109.104C243.922 113.237 238.277 116.22 232.817 119.106C226.292 122.554 219.546 126.119 216.647 132.273C212.864 140.298 214.87 149.302 216.64 157.246C217.276 159.877 217.775 162.539 218.134 165.223H174.398C170.939 157.56 166.264 148.084 160.237 137.653C164.249 130.958 168.787 123.96 173.903 116.889C189.046 95.9634 206.095 78.5752 224.579 65.2081C247.563 48.587 272.87 38.1597 299.798 34.2164C299.947 34.1954 300.099 34.2147 300.238 34.2721C300.377 34.3296 300.499 34.4232 300.59 34.5433C300.68 34.6634 300.738 34.8055 300.755 34.9551C300.773 35.1047 300.75 35.2564 300.69 35.3943Z" fill="white"/>
</svg>
