<svg width="314" height="265" viewBox="0 0 314 265" fill="none" xmlns="http://www.w3.org/2000/svg">
<path d="M313.28 100.612C313.229 99.6312 312.854 98.6955 312.214 97.9525C311.573 97.2094 310.703 96.7013 309.742 96.5085C301.641 94.9415 293.396 94.2382 285.147 94.4104C285.033 94.4254 284.917 94.4174 284.806 94.3871C284.695 94.3567 284.592 94.3044 284.501 94.2334C284.411 94.1624 284.335 94.074 284.279 93.9734C284.223 93.8728 284.188 93.762 284.175 93.6476C284.14 93.5441 284.126 93.4346 284.134 93.3256C284.143 93.2167 284.173 93.1106 284.224 93.0138C284.274 92.917 284.344 92.8315 284.429 92.7625C284.513 92.6934 284.611 92.6424 284.716 92.6123C291.752 89.4968 299.127 87.2148 306.691 85.8127C307.289 85.7062 307.858 85.4774 308.363 85.1406C308.868 84.8038 309.298 84.3662 309.627 83.8553C309.955 83.3443 310.175 82.7709 310.272 82.1711C310.369 81.5712 310.341 80.9578 310.19 80.3691C307.279 69.0046 302.509 58.2009 296.073 48.3961C295.993 48.274 295.907 48.1551 295.815 48.0416L294.437 46.336C293.922 45.6981 293.239 45.2165 292.466 44.9453C291.692 44.674 290.859 44.6239 290.058 44.8005C278.828 47.4106 267.995 51.5065 257.844 56.9802C257.474 57.2097 257.03 57.2897 256.603 57.2041C256.175 57.1185 255.796 56.8736 255.542 56.519C255.253 56.2106 255.093 55.8022 255.097 55.379C255.101 54.9558 255.268 54.5504 255.563 54.2472C262.01 46.2953 269.511 39.2606 277.856 33.3372C278.354 32.9909 278.775 32.5456 279.093 32.0291C279.412 31.5125 279.62 30.9358 279.706 30.335C279.791 29.7342 279.752 29.1221 279.591 28.537C279.43 27.952 279.15 27.4064 278.769 26.9345L276.955 24.6886C271.761 18.0443 265.31 12.4912 257.969 8.34731C250.629 4.20345 242.544 1.55029 234.178 0.539803C229.851 -0.017674 225.454 0.411077 221.316 1.79402C217.178 3.17696 213.406 5.47833 210.281 8.52616C207.156 11.574 204.76 15.2895 203.271 19.395C201.782 23.5004 201.239 27.8898 201.682 32.2349L202.563 42.0239C202.671 43.2276 202.517 44.4405 202.112 45.579C201.706 46.7174 201.059 47.7543 200.215 48.618C199.371 49.4818 198.349 50.1518 197.221 50.582C196.093 51.0122 194.885 51.1922 193.681 51.1097L183.887 50.4395C179.538 50.0893 175.167 50.7276 171.1 52.3067C167.032 53.8857 163.374 56.3646 160.398 59.5582C157.422 62.7518 155.205 66.5775 153.913 70.7494C152.622 74.9213 152.288 79.3315 152.938 83.6505C154.124 91.9931 156.941 100.02 161.228 107.271C165.515 114.522 171.189 120.856 177.923 125.91L180.257 127.716C180.79 128.123 181.409 128.402 182.066 128.533C178.682 164.891 177.88 211.687 179.672 268.33H152.616C157.241 223.059 155.276 191.08 150.255 168.491C154.494 159.293 156.461 149.209 155.992 139.09C155.836 134.725 154.697 130.452 152.659 126.59C150.622 122.728 147.739 119.376 144.226 116.787C140.713 114.197 136.661 112.435 132.373 111.634C128.085 110.832 123.671 111.011 119.461 112.158L109.958 114.623C108.79 114.926 107.57 114.972 106.382 114.757C105.194 114.542 104.067 114.072 103.078 113.379C102.089 112.685 101.262 111.786 100.654 110.742C100.047 109.698 99.6721 108.534 99.5569 107.331L98.6204 97.5467C98.2566 93.1941 96.9151 88.9801 94.696 85.2195C92.477 81.459 89.4377 78.2492 85.8055 75.83C82.1732 73.4108 78.0419 71.8447 73.7201 71.2489C69.3984 70.653 64.998 71.0428 60.8479 72.389C52.8205 74.9204 45.3705 79.0117 38.924 84.4287C32.4776 89.8458 27.1612 96.4823 23.2791 103.959L21.8784 106.558C21.5906 107.092 21.4159 107.68 21.3652 108.285C21.3145 108.889 21.3888 109.498 21.5836 110.073C21.7784 110.648 22.0895 111.176 22.4974 111.625C22.9052 112.074 23.4012 112.434 23.9543 112.683C33.2467 116.965 41.9129 122.496 49.7137 129.121C50.0594 129.365 50.2979 129.733 50.3795 130.148C50.461 130.564 50.3794 130.994 50.1515 131.351C49.9678 131.747 49.6405 132.058 49.236 132.221C48.8316 132.384 48.3803 132.387 47.9739 132.229C36.9899 128.722 25.5884 126.694 14.07 126.2C13.2516 126.179 12.4433 126.384 11.7338 126.793C11.0242 127.202 10.441 127.799 10.0481 128.518L9.00831 130.448C8.93899 130.577 8.87622 130.709 8.82024 130.844C4.29874 141.668 1.59817 153.167 0.828053 164.874C0.788237 165.48 0.873874 166.088 1.0796 166.66C1.28533 167.232 1.60672 167.755 2.02365 168.197C2.44059 168.638 2.94409 168.989 3.50264 169.227C4.06119 169.465 4.66276 169.584 5.2697 169.579C12.9624 169.564 20.6306 170.447 28.1193 172.208C28.228 172.218 28.3335 172.251 28.4294 172.303C28.5253 172.355 28.6096 172.426 28.6772 172.512C28.7448 172.598 28.7942 172.697 28.8225 172.802C28.8508 172.908 28.8574 173.018 28.8418 173.126C28.8509 173.241 28.8369 173.357 28.8005 173.466C28.7642 173.576 28.7063 173.676 28.6304 173.763C28.5544 173.85 28.4618 173.92 28.3581 173.97C28.2545 174.02 28.1418 174.049 28.0269 174.055C19.8877 175.411 11.9142 177.623 4.23894 180.654C3.3296 181.021 2.56833 181.681 2.07542 182.53C1.58252 183.378 1.3861 184.367 1.51719 185.34C1.97779 188.757 2.58333 192.057 3.31686 195.147L11.522 229.685C12.1786 232.444 13.7442 234.902 15.9664 236.661C18.1885 238.42 20.9376 239.378 23.7704 239.381C24.2588 239.381 24.7467 239.353 25.2318 239.297L60.4539 235.203C63.604 234.837 66.9082 234.278 70.2735 233.543C71.2314 233.333 72.0923 232.81 72.7201 232.056C73.348 231.302 73.707 230.36 73.7403 229.379C73.9609 221.121 73.3101 212.863 71.7986 204.741C71.7647 204.631 71.7532 204.516 71.7647 204.401C71.7763 204.286 71.8107 204.175 71.866 204.074C71.9212 203.973 71.9961 203.884 72.0863 203.812C72.1765 203.741 72.2801 203.688 72.391 203.657C72.4872 203.606 72.593 203.574 72.7018 203.565C72.8106 203.555 72.9202 203.568 73.024 203.602C73.1277 203.636 73.2234 203.691 73.3053 203.764C73.3871 203.836 73.4534 203.924 73.5001 204.023C77.7171 210.465 81.1683 217.378 83.7835 224.622C83.9857 225.195 84.3039 225.72 84.7182 226.164C85.1324 226.608 85.6337 226.962 86.1908 227.203C86.7478 227.444 87.3486 227.568 87.9555 227.566C88.5625 227.564 89.1625 227.436 89.718 227.191C100.442 222.463 110.311 215.989 118.924 208.033C119.031 207.934 119.134 207.83 119.231 207.72L120.687 206.081C121.232 205.468 121.595 204.715 121.736 203.907C121.877 203.099 121.791 202.267 121.486 201.506C117.083 190.838 111.281 180.804 104.233 171.669C103.946 171.341 103.795 170.915 103.809 170.479C103.824 170.043 104.004 169.629 104.312 169.32C104.568 168.984 104.945 168.76 105.363 168.694C105.78 168.629 106.207 168.728 106.554 168.97C115.441 174.042 123.596 180.304 130.793 187.583C131.215 188.018 131.723 188.361 132.283 188.592C132.844 188.822 133.447 188.934 134.053 188.921C134.659 188.907 135.256 188.769 135.806 188.515C136.356 188.26 136.848 187.895 137.251 187.441L139.169 185.283C140.736 183.563 142.209 181.76 143.581 179.881C147.007 200.921 147.853 229.502 143.782 268.33H88.608C87.9463 268.33 87.2931 268.479 86.6967 268.766C86.1004 269.053 85.5762 269.471 85.163 269.989C84.7498 270.506 84.4582 271.11 84.3098 271.756C84.1614 272.401 84.1601 273.072 84.3058 273.718L109.645 386.088C110.898 391.762 114.054 396.835 118.588 400.463C123.121 404.092 128.759 406.057 134.563 406.032H195.323C201.127 406.057 206.765 404.092 211.298 400.463C215.832 396.835 218.988 391.761 220.242 386.087L245.581 273.718C245.727 273.071 245.725 272.401 245.577 271.755C245.429 271.109 245.137 270.505 244.724 269.988C244.311 269.47 243.787 269.053 243.19 268.766C242.594 268.479 241.941 268.33 241.279 268.33H188.499C186.3 199.028 188.229 151.781 191.825 119.58C196.404 113.899 201.493 108.65 207.028 103.898C207.325 103.597 207.726 103.422 208.149 103.409C208.571 103.396 208.982 103.547 209.297 103.83C209.656 104.076 209.909 104.45 210.004 104.876C210.099 105.302 210.028 105.748 209.807 106.124C204.559 116.402 200.703 127.335 198.339 138.633C198.18 139.438 198.248 140.271 198.535 141.039C198.822 141.808 199.318 142.481 199.966 142.983L201.699 144.325C201.815 144.414 201.935 144.497 202.058 144.575C211.988 150.806 222.879 155.348 234.29 158.018C234.881 158.156 235.494 158.17 236.091 158.06C236.688 157.95 237.255 157.718 237.759 157.378C238.262 157.038 238.689 156.598 239.015 156.085C239.34 155.572 239.556 154.997 239.65 154.397C240.887 146.795 243.007 139.364 245.967 132.255C245.995 132.149 246.044 132.05 246.111 131.964C246.178 131.878 246.262 131.807 246.357 131.754C246.453 131.701 246.558 131.668 246.667 131.657C246.775 131.646 246.885 131.658 246.989 131.691C247.104 131.7 247.215 131.733 247.317 131.787C247.419 131.84 247.509 131.914 247.582 132.003C247.655 132.092 247.709 132.195 247.742 132.306C247.774 132.416 247.784 132.532 247.771 132.647C247.78 140.908 248.66 149.145 250.397 157.221C250.61 158.179 251.136 159.038 251.892 159.664C252.648 160.289 253.59 160.644 254.57 160.674C255.656 160.706 256.731 160.722 257.796 160.722C260.106 160.722 262.36 160.646 264.528 160.495L299.9 158.02C302.977 157.804 305.868 156.465 308.025 154.258C310.183 152.051 311.457 149.128 311.607 146.044L313.315 110.584C313.468 107.41 313.456 104.055 313.28 100.612ZM133.741 178.104C126.815 171.67 119.182 166.045 110.988 161.335C108.882 160.056 106.39 159.567 103.958 159.957C101.525 160.347 99.3103 161.59 97.709 163.465C96.0576 165.305 95.1025 167.667 95.0096 170.14C94.9168 172.612 95.692 175.039 97.2008 176.999C103.185 184.775 108.227 193.236 112.22 202.202C105.647 208.153 98.2931 213.178 90.3624 217.138C87.7613 210.892 84.5964 204.898 80.9069 199.228C79.6799 197.331 77.8338 195.918 75.6832 195.231C73.5326 194.544 71.2105 194.624 69.1126 195.459C67.0146 196.293 65.2706 197.831 64.1776 199.808C63.0847 201.786 62.7104 204.082 63.1186 206.305C64.2921 212.671 64.9136 219.127 64.9762 225.6C63.0836 225.944 61.2304 226.223 59.4364 226.431L24.2152 230.524C23.296 230.631 22.3695 230.397 21.6115 229.865C20.8534 229.334 20.3166 228.542 20.1028 227.641L11.8977 193.104C11.48 191.345 11.1072 189.506 10.7837 187.608C16.8804 185.452 23.1519 183.829 29.5281 182.756C31.7541 182.38 33.7809 181.242 35.2632 179.538C36.7455 177.833 37.5917 175.667 37.6576 173.407C37.7235 171.148 37.005 168.936 35.6245 167.148C34.244 165.359 32.287 164.105 30.0867 163.6C23.5038 162.067 16.795 161.14 10.0437 160.829C11.0477 152.013 13.2486 143.376 16.5855 135.156C26.3663 135.847 36.0307 137.697 45.3763 140.667C47.7313 141.417 50.2743 141.317 52.5632 140.384C54.8521 139.451 56.7422 137.745 57.9048 135.562C59.1167 133.414 59.5263 130.904 59.0604 128.482C58.5946 126.06 57.2837 123.882 55.3619 122.339C48.139 116.24 40.2482 110.983 31.8409 106.667C38.6877 94.3249 49.997 85.0785 63.4436 80.8285C66.3423 79.868 69.4213 79.5802 72.4476 79.9868C75.4738 80.3935 78.368 81.484 80.9112 83.1758C83.4544 84.8676 85.58 87.1164 87.127 89.7521C88.6741 92.3877 89.6021 95.3412 89.8409 98.3889L90.7774 108.173C91.1216 111.734 92.5697 115.098 94.9188 117.794C94.5227 118.074 94.1762 118.419 93.8935 118.814L42.9071 191.718C42.5696 192.193 42.3293 192.73 42.2 193.298C42.0707 193.866 42.055 194.454 42.1539 195.029C42.2527 195.603 42.4641 196.152 42.7759 196.644C43.0876 197.136 43.4936 197.561 43.9703 197.895C44.4471 198.23 44.9852 198.466 45.5536 198.591C46.1221 198.716 46.7096 198.727 47.2824 198.624C47.8552 198.521 48.4018 198.305 48.8909 197.989C49.3799 197.673 49.8016 197.263 50.1317 196.783L101.118 123.879C101.392 123.478 101.597 123.034 101.725 122.565C105.059 123.854 108.712 124.066 112.171 123.171L121.674 120.705C124.616 119.888 127.706 119.751 130.708 120.305C133.711 120.859 136.548 122.09 139.006 123.904C141.464 125.718 143.477 128.068 144.894 130.776C146.31 133.484 147.093 136.479 147.184 139.534C147.791 153.639 142.981 167.44 133.741 178.104ZM211.637 384.142C210.817 387.857 208.75 391.179 205.782 393.555C202.814 395.93 199.123 397.217 195.323 397.201H134.563C130.763 397.217 127.072 395.93 124.104 393.555C121.135 391.179 119.069 387.857 118.248 384.142L94.1246 277.16H235.762L211.637 384.142ZM304.505 110.158L302.797 145.618C302.752 146.543 302.37 147.42 301.723 148.082C301.075 148.744 300.208 149.145 299.285 149.21L263.914 151.685C262.111 151.811 260.238 151.879 258.316 151.889C257.185 145.515 256.608 139.055 256.591 132.582C256.594 130.311 255.802 128.111 254.353 126.364C252.904 124.617 250.89 123.434 248.66 123.019C248.034 122.898 247.398 122.836 246.761 122.836C244.832 122.835 242.948 123.413 241.351 124.495C239.754 125.578 238.518 127.115 237.803 128.908C235.221 135.161 233.213 141.637 231.806 148.255C223.283 145.826 215.13 142.244 207.574 137.608C209.849 128.059 213.248 118.813 217.699 110.066C218.821 107.861 219.136 105.333 218.59 102.92C218.044 100.507 216.671 98.3617 214.709 96.8572C212.79 95.3098 210.384 94.4961 207.921 94.5615C205.458 94.6269 203.099 95.5671 201.265 97.2141C194.077 103.354 187.61 110.292 181.987 117.894C170.941 109.119 163.673 96.4394 161.677 82.4637C161.203 79.4435 161.421 76.355 162.316 73.4318C163.21 70.5086 164.756 67.8274 166.838 65.5909C168.92 63.3545 171.483 61.6214 174.332 60.5229C177.182 59.4243 180.244 58.9891 183.286 59.2502L193.08 59.9204C196.645 60.1608 200.196 59.2788 203.236 57.3978C203.448 57.8349 203.731 58.2336 204.074 58.5775L267.604 120.828C268.44 121.647 269.567 122.1 270.736 122.087C271.906 122.075 273.022 121.597 273.84 120.761C274.658 119.924 275.111 118.795 275.098 117.624C275.086 116.453 274.609 115.336 273.773 114.516L210.243 52.2658C209.893 51.93 209.489 51.6549 209.048 51.4521C210.86 48.369 211.665 44.7954 211.348 41.2318L210.467 31.4429C210.141 28.4033 210.51 25.3293 211.545 22.4534C212.581 19.5775 214.256 16.9751 216.445 14.8432C218.633 12.7112 221.277 11.1055 224.177 10.1475C227.076 9.18959 230.156 8.90449 233.181 9.31381C247.178 11.0135 259.994 18.015 268.996 28.8801C261.527 34.673 254.739 41.2961 248.763 48.6223C247.158 50.494 246.27 52.876 246.258 55.3426C246.246 57.8092 247.11 60.1999 248.696 62.0874C250.241 64.0188 252.413 65.3472 254.834 65.842C257.256 66.3367 259.774 65.9664 261.951 64.7955C270.59 60.1518 279.748 56.5506 289.235 54.0675C294.027 61.5309 297.779 69.614 300.389 78.0932C293.81 79.6444 287.387 81.7936 281.199 84.514C279.129 85.4167 277.436 87.0101 276.408 89.0225C275.38 91.0349 275.081 93.3419 275.562 95.5505C276.042 97.759 277.273 99.7324 279.043 101.134C280.814 102.536 283.016 103.28 285.273 103.24C291.737 103.117 298.2 103.556 304.589 104.55C304.62 106.475 304.592 108.351 304.505 110.158Z" fill="white"/>
</svg>
