<svg width="57" height="57" viewBox="0 0 57 57" fill="none" xmlns="http://www.w3.org/2000/svg">
<circle cx="28.5" cy="28.5" r="28" stroke="white"/>
<path d="M32.9371 14.7701C30.6627 14.7701 28.8036 15.4952 27.5131 16.818C26.2231 18.1404 25.5167 20.0444 25.5167 22.3734V25.3448H21.9C21.6834 25.3448 21.4757 25.4308 21.3225 25.584C21.1694 25.7371 21.0833 25.9448 21.0833 26.1614V31.2948C21.0833 31.5114 21.1694 31.7191 21.3225 31.8722C21.4757 32.0254 21.6834 32.1114 21.9 32.1114H25.5167V42.2548C25.5167 42.4714 25.6027 42.6791 25.7559 42.8322C25.909 42.9854 26.1167 43.0714 26.3333 43.0714H31.6373C31.8539 43.0714 32.0617 42.9854 32.2148 42.8322C32.368 42.6791 32.454 42.4714 32.454 42.2548V32.1114H36.0586C36.0586 32.1114 36.0586 32.1114 36.0587 32.1114C36.2569 32.1115 36.4484 32.0395 36.5975 31.9088C36.7465 31.778 36.843 31.5975 36.8687 31.4009L36.8688 31.4006L37.5314 26.2676C37.5465 26.1523 37.5368 26.0352 37.503 25.924C37.4692 25.8127 37.4121 25.71 37.3354 25.6226C37.2587 25.5353 37.1642 25.4653 37.0583 25.4174C36.9524 25.3695 36.8376 25.3447 36.7213 25.3448C36.7213 25.3448 36.7213 25.3448 36.7213 25.3448H32.454V22.8828C32.454 22.233 32.523 21.8309 32.7476 21.5815C32.9687 21.336 33.3785 21.1994 34.1813 21.1994H36.9C37.1166 21.1994 37.3243 21.1134 37.4775 20.9602C37.6306 20.8071 37.7167 20.5994 37.7167 20.3828V15.7895C37.7167 15.7895 37.7167 15.7895 37.7167 15.7894C37.7167 15.5912 37.6447 15.3997 37.514 15.2506C37.3833 15.1016 37.2028 15.0051 37.0062 14.9794L37.0062 14.9793L37.0025 14.9789C35.6522 14.8357 34.295 14.766 32.9371 14.7701ZM32.9371 14.7701C32.9372 14.7701 32.9373 14.7701 32.9373 14.7701V14.9201L32.9369 14.7701C32.937 14.7701 32.937 14.7701 32.9371 14.7701ZM31.636 26.9794H31.6357C31.4194 26.979 31.2121 26.8928 31.0593 26.7397C30.9065 26.5865 30.8207 26.3791 30.8207 26.1628V22.8828C30.8207 22.1968 30.9034 21.3647 31.3747 20.7029C31.8534 20.0307 32.7086 19.5661 34.1799 19.5661L31.636 26.9794ZM31.636 26.9794H35.7933L35.3402 30.4794H31.6373C31.4207 30.4794 31.213 30.5655 31.0599 30.7186C30.9067 30.8718 30.8207 31.0795 30.8207 31.2961V41.4368H27.15V31.2961C27.15 31.0795 27.064 30.8718 26.9108 30.7186C26.7577 30.5655 26.5499 30.4794 26.3333 30.4794H22.718V26.9794H26.3333C26.5499 26.9794 26.7577 26.8934 26.9108 26.7402C27.064 26.5871 27.15 26.3794 27.15 26.1628V22.3734C27.15 20.4861 27.6963 18.9972 28.6823 17.9809C29.6678 16.9651 31.1099 16.4034 32.9373 16.4034C34.1972 16.4034 35.3422 16.468 36.0833 16.5286V19.5649L34.18 19.5661L31.636 26.9794Z" fill="white" stroke="white" stroke-width="0.3"/>
</svg>
