<svg width="91" height="100" viewBox="0 0 91 100" fill="none" xmlns="http://www.w3.org/2000/svg">
<path d="M83.9824 63.3313L83.983 63.3313L85.6569 63.3313C86.0832 63.3313 86.492 63.5006 86.7935 63.8021C87.0949 64.1035 87.2643 64.5124 87.2643 64.9387V66.6128V66.6134C87.2596 70.8271 85.5836 74.8669 82.604 77.8464C79.6245 80.826 75.5847 82.502 71.371 82.5067H71.3704H71.3038V88.8872C76.631 89.1606 81.798 90.8188 86.2927 93.7018C86.4716 93.8145 86.6265 93.9615 86.7485 94.1343C86.8711 94.3078 86.958 94.504 87.0043 94.7113L86.5163 94.8203L87.0043 94.7114C87.0506 94.9187 87.0553 95.1332 87.0182 95.3425C86.9811 95.5516 86.9028 95.7514 86.788 95.9302C86.6732 96.109 86.524 96.2632 86.3492 96.384C86.1744 96.5048 85.9774 96.5897 85.7695 96.6339C85.5617 96.6781 85.3472 96.6806 85.1383 96.6413C84.9306 96.6022 84.7326 96.5225 84.5557 96.4068C80.1196 93.5677 74.9631 92.0589 69.6963 92.0589C64.4287 92.0589 59.2714 93.5682 54.8349 96.4082L83.9824 63.3313ZM83.9824 63.3313C80.8084 63.3352 77.708 64.288 75.0797 66.0673C72.7679 67.6323 70.9141 69.7739 69.6963 72.2713M83.9824 63.3313L69.6963 72.2713M69.6963 72.2713C68.4786 69.7739 66.6248 67.6323 64.313 66.0673C61.6846 64.288 58.5843 63.3352 55.4103 63.3313H55.4097H53.7358C53.3095 63.3313 52.9006 63.5006 52.5992 63.8021C52.2977 64.1035 52.1284 64.5124 52.1284 64.9387V66.6128V66.6134C52.1331 70.8271 53.8091 74.8669 56.7886 77.8464C59.7682 80.826 63.8079 82.5019 68.0217 82.5067H68.0222H68.0889V88.8872C62.7608 89.1607 57.5931 90.8193 53.0979 93.7031C51.4295 94.7718 49.4896 95.3398 47.5083 95.3397C45.5269 95.3397 43.5871 94.7716 41.9187 93.7028C37.4235 90.8194 32.256 89.1609 26.9281 88.8875V82.5067H26.9946H26.9952C31.2089 82.502 35.2487 80.826 38.2283 77.8464C41.2079 74.8669 42.8839 70.8271 42.8887 66.6134V66.6128V64.9387C42.8887 64.5124 42.7193 64.1035 42.4179 63.8021V63.8021C42.1164 63.5006 41.7076 63.3313 41.2813 63.3313L39.6072 63.3313L39.6066 63.3313C36.4326 63.3352 33.3323 64.2879 30.7039 66.0672C28.3921 67.6322 26.5384 69.7738 25.3206 72.2711C24.1029 69.7738 22.2491 67.6322 19.9373 66.0672C17.309 64.2879 14.2087 63.3352 11.0347 63.3313H11.0341H9.36011C8.9338 63.3313 8.52494 63.5006 8.22349 63.8021C7.92203 64.1035 7.75269 64.5124 7.75269 64.9387L7.75269 66.6128L7.75269 66.6134C7.75743 70.8271 9.43344 74.8669 12.413 77.8464C15.3926 80.826 19.4324 82.502 23.6461 82.5067H23.6466H23.7132V88.8875C18.3854 89.1609 13.2178 90.8194 8.72268 93.7028L8.7224 93.703C8.36371 93.9334 8.11125 94.2969 8.02055 94.7134C7.92985 95.13 8.00834 95.5655 8.23875 95.9242L8.23875 95.9242C8.46916 96.2829 8.83263 96.5353 9.24918 96.626C9.66548 96.7167 10.1007 96.6384 10.4593 96.4083L69.6963 72.2713ZM25.3205 92.059C20.0532 92.059 14.8962 93.5682 10.46 96.4078L25.3205 92.059ZM25.3205 92.059C30.588 92.0589 35.7453 93.5681 40.1817 96.4079M25.3205 92.059L40.1817 96.4079M40.1817 96.4079C42.3685 97.809 44.9111 98.5537 47.5083 98.5537M40.1817 96.4079L47.5083 98.5537M47.5083 98.5537C50.1053 98.5537 52.6479 97.8092 54.8347 96.4083L47.5083 98.5537ZM39.6077 66.5461L39.6738 66.5461V66.6122C39.67 69.9739 38.3329 73.1969 35.9558 75.5739C33.5787 77.951 30.3558 79.2881 26.9941 79.2918H26.9281V79.2259C26.9319 75.8642 28.269 72.6413 30.646 70.2642C33.0231 67.8872 36.2459 66.55 39.6075 66.5461C39.6076 66.5461 39.6077 66.5461 39.6077 66.5461ZM10.9675 66.6122L10.9675 66.5461L11.0335 66.5461C11.0336 66.5461 11.0337 66.5461 11.0337 66.5461C14.3954 66.55 17.6182 67.8872 19.9952 70.2642C22.3723 72.6413 23.7094 75.8642 23.7132 79.2259V79.2918H23.6472C20.2855 79.288 17.0626 77.9509 14.6855 75.5739C12.3085 73.1969 10.9714 69.9741 10.9675 66.6125C10.9675 66.6124 10.9675 66.6123 10.9675 66.6122ZM55.3432 66.6123V66.5461L55.409 66.5461C55.4091 66.5461 55.4092 66.5461 55.4093 66.5461C58.7709 66.55 61.9937 67.8872 64.3708 70.2642C66.7479 72.6413 68.085 75.8642 68.0888 79.2259V79.2918H68.0227C64.6611 79.288 61.4382 77.9509 59.0611 75.5739C56.6841 73.1968 55.3469 69.9739 55.3432 66.6123ZM84.0494 66.6123C84.0456 69.9739 82.7085 73.1968 80.3314 75.5739C77.9544 77.951 74.7315 79.288 71.3698 79.2918H71.3038V79.2259C71.3076 75.8642 72.6447 72.6413 75.0218 70.2642C77.3989 67.8872 80.6217 66.55 83.9834 66.5461C83.9834 66.5461 83.9835 66.5461 83.9836 66.5461L84.0494 66.5461L84.0494 66.6123Z" fill="#285A43" stroke="#285A43"/>
<path d="M18.9237 48.3197L1.99671 31.3927L1.99669 31.3927C1.45769 30.8537 1.0461 30.2009 0.792083 29.4821C0.538066 28.7634 0.448053 27.9969 0.528635 27.2389C0.609218 26.4809 0.858355 25.7505 1.2578 25.1012C1.65724 24.4519 2.19687 23.9003 2.83716 23.4866L3.1085 23.9065L2.83716 23.4866L8.80583 19.6303L7.59253 18.417L7.59212 18.4166C5.97555 16.7963 5.06768 14.6009 5.06768 12.3121C5.06768 10.0233 5.97555 7.82789 7.59212 6.20758L7.59255 6.20715L9.82479 3.9751C10.6265 3.17337 11.5783 2.5374 12.6258 2.10351C13.6733 1.66961 14.796 1.44629 15.9298 1.44629C17.0636 1.44629 18.1863 1.66961 19.2338 2.10351C20.2813 2.5374 21.233 3.17337 22.0347 3.9751L21.6812 4.32865L22.0348 3.97511L27.255 9.19551L27.2564 9.19672L27.2712 9.21156L41.1453 23.0858C41.4052 23.3458 41.5682 23.687 41.607 24.0526C41.6459 24.4181 41.5582 24.786 41.3587 25.0947L38.49 29.5348L47.9434 30.7122L51.5502 28.4361L51.817 28.859L51.5502 28.4361C51.7933 28.2827 52.0732 28.1973 52.3606 28.1888C52.648 28.1803 52.9324 28.2491 53.1842 28.3879C53.4359 28.5267 53.6459 28.7306 53.7921 28.9781C53.9383 29.2257 54.0154 29.508 54.0154 29.7955V39.746C54.0154 40.0335 53.9383 40.3158 53.7921 40.5633C53.6459 40.8109 53.436 41.0147 53.1842 41.1536L52.9427 40.7157L53.1842 41.1536C52.9324 41.2924 52.648 41.3612 52.3606 41.3527C52.0732 41.3442 51.7933 41.2588 51.5502 41.1054L51.5501 41.1054L47.9434 38.829L31.1323 40.9227L26.8705 47.5189L18.9237 48.3197ZM18.9237 48.3197L18.9633 48.3595C19.4364 48.8346 19.9987 49.2115 20.6179 49.4685C21.2371 49.7256 21.901 49.8577 22.5714 49.8573C22.754 49.8572 22.9363 49.8475 23.1178 49.8281C23.1179 49.8281 23.1181 49.8281 23.1182 49.8281L23.0651 49.3309C23.7493 49.2596 24.4087 49.0355 24.9946 48.675L18.9237 48.3197ZM48.1167 33.9735L48.1178 33.9736C48.4858 34.0186 48.8582 33.9355 49.1721 33.7383L49.173 33.7377L50.8005 32.7107V36.8307L49.173 35.8035L49.1725 35.8032C48.8584 35.6055 48.4857 35.5223 48.1173 35.5677L48.1167 35.5678L33.4086 37.3996L36.5527 32.5333L48.1167 33.9735ZM3.72536 27.5798L3.72558 27.5777C3.75486 27.2967 3.84692 27.0258 3.99495 26.7852C4.14299 26.5446 4.34322 26.3403 4.58084 26.1874L4.58168 26.1869L25.9162 12.403L37.9538 24.4407L24.1697 45.7749L24.1697 45.775C24.0162 46.0125 23.8116 46.2127 23.5708 46.3609C23.3299 46.509 23.059 46.6014 22.7778 46.6313C22.4966 46.6612 22.2123 46.6278 21.9457 46.5336C21.6791 46.4393 21.437 46.2866 21.2371 46.0866L21.237 46.0867L4.27 29.1197L4.26928 29.119C4.06907 28.9196 3.91625 28.6777 3.8221 28.4113C3.72795 28.1449 3.69489 27.8607 3.72536 27.5798ZM9.86619 16.1444C8.85135 15.1272 8.28142 13.749 8.28142 12.3122C8.28142 10.8753 8.85135 9.4971 9.86619 8.47991L12.098 6.24826C13.1143 5.2321 14.4926 4.66124 15.9297 4.66124C17.3668 4.66124 18.7451 5.2321 19.7613 6.24825C19.7614 6.24825 19.7614 6.24826 19.7614 6.24826L23.591 10.0779L11.5677 17.8459L9.86619 16.1444Z" fill="#285A43" stroke="#285A43"/>
<path d="M73.0947 46.7228L73.0947 46.7228L68.9585 43.0337L69.2753 42.6469C69.2751 42.6467 69.2749 42.6465 69.2746 42.6463C69.1115 42.5128 68.9237 42.4127 68.7219 42.3517C68.5198 42.2906 68.3077 42.27 68.0977 42.2909C67.8876 42.3117 67.6837 42.3738 67.4976 42.4735C67.3116 42.5732 67.147 42.7086 67.0132 42.8719C66.7431 43.2017 66.615 43.6253 66.6572 44.0495C66.6994 44.4738 66.9084 44.8639 67.2382 45.134L67.2398 45.1353C68.4661 46.1311 69.5518 47.2883 70.4674 48.5755C70.7129 48.9234 71.0865 49.1597 71.5061 49.2325C71.9262 49.3053 72.358 49.2082 72.7065 48.9627C73.055 48.7172 73.2917 48.3432 73.3645 47.9232C73.4373 47.5031 73.3403 47.0713 73.0947 46.7228Z" fill="#285A43" stroke="#285A43"/>
<path d="M73.3922 57.3843L73.3922 57.3843C73.3227 55.8072 73.0425 54.2464 72.559 52.7436L73.035 52.5904L72.5598 52.746C72.4941 52.5454 72.4686 52.3338 72.4847 52.1233C72.5008 51.9129 72.5582 51.7076 72.6536 51.5193C72.749 51.331 72.8806 51.1634 73.0409 51.026C73.2011 50.8886 73.3868 50.7841 73.5873 50.7185L73.3922 57.3843ZM73.3922 57.3843L73.3923 57.3867M73.3922 57.3843L73.3923 57.3867M73.3923 57.3867C73.4124 57.7988 73.5902 58.1873 73.8888 58.4719C74.1874 58.7566 74.584 58.9155 74.9965 58.9159H74.997M73.3923 57.3867L74.997 58.9159M74.997 58.9159C75.0239 58.9159 75.0491 58.9152 75.0713 58.9143L75.0713 58.9144M74.997 58.9159L75.0713 58.9144M75.0713 58.9144L75.0762 58.9141M75.0713 58.9144L75.0762 58.9141M75.0762 58.9141C75.502 58.8933 75.902 58.7043 76.1885 58.3885C76.4745 58.0733 76.6238 57.6575 76.6037 57.2324C76.5205 55.3684 76.1882 53.524 75.6156 51.7482L75.6156 51.7482M75.0762 58.9141L75.6156 51.7482M75.6156 51.7482L75.615 51.7463M75.6156 51.7482L75.615 51.7463M75.615 51.7463C75.5493 51.5456 75.4448 51.3598 75.3074 51.1996C75.17 51.0394 75.0024 50.9078 74.8141 50.8123L74.5939 51.2467M75.615 51.7463L74.5939 51.2467M74.5939 51.2467L74.8141 50.8123C74.6258 50.7169 74.4205 50.6595 74.21 50.6434M74.5939 51.2467L74.21 50.6434M74.21 50.6434C73.9996 50.6273 73.7881 50.6528 73.5875 50.7184L74.21 50.6434Z" fill="#285A43" stroke="#285A43"/>
<path d="M63.1914 42.5329L63.1914 42.5329L63.1946 42.5345C63.3833 42.629 63.5888 42.6855 63.7994 42.7006C64.0099 42.7158 64.2214 42.6893 64.4217 42.6227C64.622 42.5561 64.8072 42.4507 64.9668 42.3125C65.1264 42.1743 65.2572 42.006 65.3517 41.8173C65.4463 41.6286 65.5027 41.4231 65.5179 41.2125C65.533 41.002 65.5065 40.7905 65.4399 40.5902L64.9655 40.7479L65.4399 40.5902C65.3733 40.3899 65.2679 40.2046 65.1297 40.0451C64.9921 39.8861 64.8245 39.7556 64.6366 39.6612C62.98 38.8137 61.2321 38.1583 59.4267 37.7076L59.418 37.7054L59.4092 37.7036C58.9939 37.6156 58.5607 37.6955 58.2042 37.9258C57.8476 38.1561 57.5966 38.518 57.5059 38.9327C57.4152 39.3474 57.4922 39.7811 57.7201 40.1392C57.9466 40.4951 58.3039 40.7476 58.7147 40.8424C60.2647 41.2391 61.7661 41.806 63.1914 42.5329Z" fill="#285A43" stroke="#285A43"/>
<path d="M78.8236 38.8646L78.8235 38.8646L78.8289 38.8685C80.1281 39.8101 81.319 40.8926 82.3798 42.0964C82.6615 42.4164 83.0588 42.6114 83.4843 42.6384C83.9097 42.6655 84.3285 42.5225 84.6486 42.2408C84.9686 41.9591 85.1636 41.5618 85.1906 41.1363C85.2177 40.7108 85.0747 40.292 84.793 39.972L84.7928 39.9718C83.5748 38.5898 82.2075 37.347 80.7159 36.266L80.7159 36.2659L80.7108 36.2623C80.3654 36.0186 79.9379 35.9208 79.5209 35.99C79.1039 36.0592 78.731 36.2898 78.4828 36.632C78.2346 36.9742 78.1313 37.4004 78.195 37.8182C78.2588 38.2361 78.4846 38.612 78.8236 38.8646Z" fill="#285A43" stroke="#285A43"/>
<path d="M70.0277 34.8699L70.0277 34.8699C69.616 34.7647 69.2626 34.5007 69.045 34.1357C68.8274 33.7707 68.7632 33.3344 68.8664 32.9222C68.9695 32.5099 69.2318 32.1553 69.5957 31.9359C69.9596 31.7165 70.3956 31.6501 70.8083 31.7513L70.8097 31.7516L70.8097 31.7516C72.5755 32.1898 74.2992 32.7832 75.9605 33.5248L70.0277 34.8699ZM70.0277 34.8699L70.0311 34.8707M70.0277 34.8699L70.0311 34.8707M70.0311 34.8707C71.6125 35.2629 73.1561 35.794 74.6441 36.4578M70.0311 34.8707L74.6441 36.4578M74.6441 36.4578C74.8363 36.5446 75.0437 36.5927 75.2546 36.5994C75.466 36.6062 75.6766 36.5711 75.8744 36.4963C76.0722 36.4215 76.2532 36.3084 76.4073 36.1635C76.5613 36.0185 76.6852 35.8447 76.7719 35.6518C76.8585 35.4589 76.9063 35.2508 76.9124 35.0394C76.9186 34.828 76.8829 34.6175 76.8076 34.4199C76.7322 34.2223 76.6186 34.0416 76.4732 33.888C76.3279 33.7344 76.1537 33.611 75.9606 33.5249L74.6441 36.4578Z" fill="#285A43" stroke="#285A43"/>
<path d="M87.9567 44.4676L87.9567 44.4676L87.9559 44.4662C87.8532 44.2818 87.7152 44.1194 87.5497 43.9883C87.3843 43.8573 87.1946 43.7601 86.9916 43.7023C86.7885 43.6445 86.5761 43.6273 86.3664 43.6516C86.1567 43.6759 85.9539 43.7412 85.7695 43.8439C85.5851 43.9467 85.4227 44.0847 85.2916 44.2501C85.1605 44.4156 85.0633 44.6053 85.0055 44.8083C84.9477 45.0113 84.9305 45.2237 84.9548 45.4334C84.9791 45.6431 85.0445 45.846 85.1472 46.0304L85.584 45.7871L85.1464 46.0289C85.931 47.4492 86.5829 48.9389 87.0935 50.479L87.094 50.4802C87.2292 50.8845 87.5196 51.2185 87.9011 51.4088C88.2826 51.599 88.7241 51.6299 89.1284 51.4946C89.5326 51.3594 89.8666 51.0691 90.0569 50.6875C90.2469 50.3064 90.2779 49.8654 90.1431 49.4614C89.5696 47.7331 88.8377 46.0614 87.9567 44.4676Z" fill="#285A43" stroke="#285A43"/>
<path d="M65.178 34.0529L65.1776 34.0529C64.1917 33.9626 63.2083 33.917 62.2553 33.917C61.6514 33.917 61.1674 33.9358 60.8349 33.9546C60.5076 33.9731 60.327 33.9915 60.322 33.9921C60.322 33.9921 60.322 33.9921 60.3219 33.9921C59.9002 34.0329 59.4795 33.9056 59.1512 33.6378C58.8228 33.37 58.6135 32.9834 58.5687 32.562C58.5239 32.1407 58.6473 31.7187 58.912 31.3878C59.1768 31.057 59.5614 30.8441 59.9823 30.7954L59.9875 30.7948L59.9875 30.7948C60.0354 30.7897 60.8763 30.7021 62.2554 30.7021C63.3069 30.7021 64.3884 30.7524 65.4705 30.8513L65.178 34.0529ZM65.178 34.0529C65.2284 34.0575 65.2775 34.0595 65.3254 34.0595L65.3258 34.0595C65.7393 34.0592 66.1368 33.8995 66.4357 33.6136C66.7345 33.3277 66.9116 32.9377 66.9303 32.5245C66.9489 32.1114 66.8076 31.707 66.5357 31.3953C66.2639 31.0837 65.8824 30.8889 65.4706 30.8513L65.4251 31.3492C65.7088 31.3751 65.9717 31.5094 66.159 31.724C66.3463 31.9387 66.4436 32.2174 66.4308 32.502C66.418 32.7866 66.2959 33.0553 66.09 33.2523C65.8841 33.4493 65.6103 33.5593 65.3254 33.5595C65.2917 33.5595 65.2577 33.5581 65.2232 33.555L65.178 34.0529Z" fill="#285A43" stroke="#285A43"/>
</svg>
