<svg width="126" height="126" viewBox="0 0 126 126" fill="none" xmlns="http://www.w3.org/2000/svg">
<path d="M47.1675 26.9343L47.521 26.5808C47.6703 26.73 47.7887 26.9072 47.8695 27.1023C47.9502 27.2973 47.9918 27.5063 47.9918 27.7174C47.9918 27.9285 47.9502 28.1376 47.8695 28.3326C47.7887 28.5276 47.6703 28.7048 47.521 28.8541C47.3717 29.0033 47.1945 29.1217 46.9995 29.2025C46.8045 29.2833 46.5954 29.3249 46.3843 29.3249C46.1732 29.3249 45.9642 29.2833 45.7692 29.2025C45.5742 29.1217 45.397 29.0033 45.2477 28.8541L45.2477 28.8541M47.1675 26.9343L45.6012 28.5005L45.2477 28.8541M47.1675 26.9343L47.521 26.5808L45.0069 24.0667L45.0069 24.0667M47.1675 26.9343L45.0069 24.0667M45.2477 28.8541L42.7336 26.34M45.2477 28.8541L42.7336 26.34M42.7336 26.34C42.7336 26.34 42.7336 26.34 42.7336 26.34M42.7336 26.34L42.7336 26.34M45.0069 24.0667C44.7055 23.7652 44.2966 23.5959 43.8703 23.5959C43.4439 23.5959 43.0351 23.7653 42.7336 24.0667L43.0872 24.4203M45.0069 24.0667L43.0872 24.4203M43.0872 24.4203L42.7336 24.0667C42.4322 24.3682 42.2628 24.777 42.2628 25.2034M43.0872 24.4203L42.2628 25.2034M42.2628 25.2034C42.2628 25.6297 42.4322 26.0386 42.7336 26.34M42.2628 25.2034L42.7336 26.34" fill="#285A43" stroke="#285A43"/>
<path d="M73.9349 26.5809L73.9349 26.5809L75.0715 28.8248L75.0709 29.3248C75.071 29.3248 75.0712 29.3248 75.0714 29.3248C75.2826 29.325 75.4917 29.2835 75.6868 29.2027C75.8819 29.1219 76.0591 29.0033 76.2083 28.8539C76.2083 28.8539 76.2083 28.8538 76.2084 28.8538C76.2085 28.8537 76.2086 28.8536 76.2087 28.8535L78.7205 26.3412C78.871 26.1927 78.9907 26.0159 79.0728 25.821C79.1552 25.6255 79.1981 25.4156 79.1989 25.2034C79.1998 24.9912 79.1586 24.781 79.0778 24.5847C78.997 24.3885 78.8781 24.2103 78.728 24.0603C78.578 23.9102 78.3997 23.7914 78.2035 23.7106C78.0073 23.6298 77.797 23.5887 77.5849 23.5896C77.3727 23.5904 77.1627 23.6333 76.9672 23.7157C76.7724 23.7979 76.5956 23.9176 76.4472 24.0681L73.9349 26.5809Z" fill="#285A43" stroke="#285A43"/>
<path d="M81.0128 43.6683H86.323C86.7494 43.6683 87.1582 43.499 87.4597 43.1975C87.7611 42.8961 87.9305 42.4872 87.9305 42.0609C87.9305 41.6346 87.7611 41.2257 87.4597 40.9243L87.1061 41.2778L87.4597 40.9243C87.1582 40.6228 86.7494 40.4535 86.323 40.4535H81.0128C80.5865 40.4535 80.1776 40.6228 79.8762 40.9243C79.5747 41.2257 79.4054 41.6346 79.4054 42.0609C79.4054 42.4872 79.5747 42.8961 79.8762 43.1975C80.1776 43.499 80.5865 43.6683 81.0128 43.6683Z" fill="#285A43" stroke="#285A43"/>
<path d="M35.1328 43.6683H40.443C40.8693 43.6683 41.2782 43.499 41.5796 43.1975C41.8811 42.8961 42.0504 42.4872 42.0504 42.0609C42.0504 41.6346 41.8811 41.2257 41.5796 40.9243L41.2261 41.2778L41.5796 40.9243C41.2782 40.6228 40.8693 40.4535 40.443 40.4535H35.1328C34.7065 40.4535 34.2976 40.6228 33.9961 40.9243C33.6947 41.2257 33.5253 41.6346 33.5253 42.0609C33.5253 42.4872 33.6947 42.8961 33.9961 43.1975C34.2976 43.499 34.7065 43.6683 35.1328 43.6683Z" fill="#285A43" stroke="#285A43"/>
<path d="M60.7278 23.3835C61.1542 23.3835 61.563 23.2141 61.8645 22.9127C62.1659 22.6112 62.3353 22.2024 62.3353 21.7761V16.4658C62.3353 16.0395 62.1659 15.6307 61.8645 15.3292C61.563 15.0278 61.1542 14.8584 60.7278 14.8584C60.3015 14.8584 59.8927 15.0278 59.5912 15.3292L59.9448 15.6828L59.5912 15.3292C59.2898 15.6307 59.1204 16.0395 59.1204 16.4658V21.7761C59.1204 22.2024 59.2898 22.6112 59.5912 22.9127C59.8927 23.2141 60.3015 23.3835 60.7278 23.3835Z" fill="#285A43" stroke="#285A43"/>
<path d="M46.4003 50.7143L30.1481 62.8026C29.947 62.9522 29.7836 63.1467 29.6711 63.3707C29.5586 63.5946 29.5 63.8418 29.5 64.0924V109.534C29.5 109.96 29.6693 110.369 29.9708 110.671L29.9708 110.671C30.2722 110.972 30.6811 111.142 31.1074 111.142H90.3483C90.7746 111.142 91.1834 110.972 91.4849 110.671C91.7863 110.369 91.9557 109.96 91.9557 109.534V64.0924C91.9557 63.8418 91.8971 63.5946 91.7845 63.3707C91.672 63.1467 91.5087 62.9522 91.3076 62.8026L75.0554 50.7143C76.5289 48.2785 77.3585 45.5047 77.4619 42.6545C77.571 39.6484 76.8684 36.6685 75.4278 34.0278C73.9872 31.3871 71.8618 29.1832 69.2751 27.6478C66.6885 26.1124 63.7359 25.3021 60.7278 25.3021C57.7198 25.3021 54.7672 26.1124 52.1805 27.6478C49.5938 29.1832 47.4685 31.3871 46.0279 34.0278C44.5873 36.6685 43.8847 39.6484 43.9938 42.6545C44.0972 45.5047 44.9268 48.2785 46.4003 50.7143ZM48.9914 48.787C47.8151 46.7442 47.1947 44.425 47.1975 42.0615V42.0606C47.1963 39.9635 47.6825 37.8949 48.6178 36.018C49.5532 34.1411 50.912 32.5072 52.587 31.2455C54.262 29.9838 56.2073 29.1286 58.2695 28.7476C60.3317 28.3666 62.4541 28.4702 64.4694 29.0501C66.4847 29.63 68.3376 30.6704 69.8818 32.0892C71.4261 33.508 72.6194 35.2664 73.3675 37.2254C74.1157 39.1845 74.3983 41.2906 74.1929 43.3776C74.0053 45.2846 73.4149 47.1279 72.4633 48.7864L61.687 40.7711L61.687 40.7711C61.4097 40.5648 61.0733 40.4534 60.7277 40.4534C60.3822 40.4534 60.0458 40.5648 59.7685 40.7711L59.7685 40.7711L48.9914 48.787ZM88.7407 107.927H32.7149V64.9001L60.7278 44.0642L88.7408 64.9001L88.7407 107.927Z" fill="#285A43" stroke="#285A43"/>
<path d="M47.7333 71.2183H47.7328H46.7405C46.3142 71.2183 45.9053 71.3877 45.6039 71.6891C45.3024 71.9906 45.1331 72.3994 45.1331 72.8257L45.1331 73.8181L45.1331 73.8186C45.1377 77.669 46.6614 81.3621 49.3731 84.0956C51.9683 86.7116 55.451 88.2465 59.1204 88.4046V95.5451C54.4828 95.8148 49.9895 97.2734 46.0745 99.7841L46.0742 99.7843C45.7155 100.015 45.4631 100.378 45.3724 100.795C45.2817 101.211 45.3601 101.647 45.5906 102.006C45.821 102.364 46.1844 102.617 46.601 102.707C47.0173 102.798 47.4525 102.72 47.8111 102.49C51.6671 100.021 56.1496 98.7095 60.7279 98.7095C65.3053 98.7095 69.7869 100.021 73.6424 102.488C73.8193 102.604 74.0174 102.684 74.2251 102.723C74.434 102.762 74.6485 102.759 74.8563 102.715C75.0642 102.671 75.2612 102.586 75.436 102.465C75.6108 102.345 75.76 102.19 75.8748 102.012C75.9896 101.833 76.0679 101.633 76.105 101.424C76.1421 101.215 76.1374 101 76.0911 100.793C76.0448 100.585 75.9578 100.389 75.8353 100.216C75.7132 100.043 75.5582 99.8957 75.3791 99.7829C71.4647 97.2728 66.9721 95.8147 62.3353 95.5451V88.4046C66.0046 88.2465 69.4873 86.7115 72.0825 84.0955C74.7942 81.362 76.3179 77.669 76.3225 73.8186V73.8181V72.8257C76.3225 72.3994 76.1531 71.9906 75.8517 71.6891C75.5502 71.3877 75.1414 71.2183 74.715 71.2183L73.7227 71.2183L73.7222 71.2183C70.8504 71.2213 68.0431 72.0697 65.6504 73.6578C63.5606 75.0448 61.8679 76.9424 60.7278 79.1629C59.5878 76.9424 57.895 75.0448 55.8053 73.6578C53.4125 72.0697 50.6051 71.2213 47.7333 71.2183ZM51.6869 81.8666C49.7027 79.8824 48.5243 77.2409 48.3661 74.4514C51.1556 74.6096 53.7971 75.7879 55.7814 77.7721C57.7656 79.7564 58.9439 82.3979 59.1022 85.1874C56.3127 85.0292 53.6711 83.8509 51.6869 81.8666ZM65.6742 77.7721C67.6585 75.7879 70.3 74.6096 73.0895 74.4514C72.9312 77.2409 71.7529 79.8824 69.7686 81.8666C67.7844 83.8509 65.1428 85.0292 62.3533 85.1874C62.5116 82.3979 63.6899 79.7564 65.6742 77.7721Z" fill="#285A43" stroke="#285A43"/>
</svg>
