<svg width="57" height="57" viewBox="0 0 57 57" fill="none" xmlns="http://www.w3.org/2000/svg">
<circle cx="28.5" cy="28.5" r="28" stroke="white"/>
<path d="M22.4 15.6665H33.6C37.8667 15.6665 41.3334 19.1332 41.3334 23.3998V34.5998C41.3334 36.6508 40.5186 38.6178 39.0683 40.0681C37.618 41.5184 35.651 42.3332 33.6 42.3332H22.4C18.1334 42.3332 14.6667 38.8665 14.6667 34.5998V23.3998C14.6667 21.3488 15.4814 19.3818 16.9317 17.9315C18.382 16.4813 20.349 15.6665 22.4 15.6665ZM22.1334 18.3332C20.8603 18.3332 19.6394 18.8389 18.7392 19.7391C17.8391 20.6392 17.3334 21.8601 17.3334 23.1332V34.8665C17.3334 37.5198 19.48 39.6665 22.1334 39.6665H33.8667C35.1397 39.6665 36.3606 39.1608 37.2608 38.2606C38.161 37.3604 38.6667 36.1395 38.6667 34.8665V23.1332C38.6667 20.4798 36.52 18.3332 33.8667 18.3332H22.1334ZM35 20.3332C35.442 20.3332 35.866 20.5088 36.1785 20.8213C36.4911 21.1339 36.6667 21.5578 36.6667 21.9998C36.6667 22.4419 36.4911 22.8658 36.1785 23.1783C35.866 23.4909 35.442 23.6665 35 23.6665C34.558 23.6665 34.1341 23.4909 33.8215 23.1783C33.5089 22.8658 33.3334 22.4419 33.3334 21.9998C33.3334 21.5578 33.5089 21.1339 33.8215 20.8213C34.1341 20.5088 34.558 20.3332 35 20.3332ZM28 22.3332C29.7681 22.3332 31.4638 23.0355 32.7141 24.2858C33.9643 25.536 34.6667 27.2317 34.6667 28.9998C34.6667 30.7679 33.9643 32.4636 32.7141 33.7139C31.4638 34.9641 29.7681 35.6665 28 35.6665C26.2319 35.6665 24.5362 34.9641 23.286 33.7139C22.0357 32.4636 21.3334 30.7679 21.3334 28.9998C21.3334 27.2317 22.0357 25.536 23.286 24.2858C24.5362 23.0355 26.2319 22.3332 28 22.3332ZM28 24.9998C26.9392 24.9998 25.9217 25.4213 25.1716 26.1714C24.4214 26.9216 24 27.939 24 28.9998C24 30.0607 24.4214 31.0781 25.1716 31.8283C25.9217 32.5784 26.9392 32.9998 28 32.9998C29.0609 32.9998 30.0783 32.5784 30.8284 31.8283C31.5786 31.0781 32 30.0607 32 28.9998C32 27.939 31.5786 26.9216 30.8284 26.1714C30.0783 25.4213 29.0609 24.9998 28 24.9998Z" fill="white"/>
</svg>
