<svg width="70" height="90" viewBox="0 0 70 90" fill="none" xmlns="http://www.w3.org/2000/svg">
<path d="M43.5265 37.5483L43.88 37.1947L63.5498 56.8647C63.55 56.865 63.5503 56.8652 63.5505 56.8655C65.4103 58.7156 66.8252 60.9642 67.6883 63.4414C68.5514 65.9186 68.8402 68.5595 68.5329 71.1646C68.4376 72.0214 68.101 72.8335 67.5621 73.5063C67.0231 74.1794 66.304 74.6855 65.4885 74.9657C65.488 74.9659 65.4875 74.966 65.4871 74.9662L65.3248 74.4933C64.8892 74.6457 64.4311 74.7237 63.9696 74.7242L43.5265 37.5483ZM43.5265 37.5483L43.88 37.1947L38.3755 31.6902V11.9438V11.9432C38.3723 9.10984 37.2453 6.39342 35.2419 4.3899C33.2384 2.38638 30.522 1.25936 27.6886 1.2561H27.6881H25.4893C25.063 1.2561 24.6541 1.42546 24.3527 1.7269L24.3527 1.72691C24.0512 2.02836 23.8819 2.43721 23.8819 2.86353V26.9284L8.30395 11.3503C8.30393 11.3503 8.30391 11.3503 8.30389 11.3503C8.15465 11.201 7.97746 11.0825 7.78244 11.0017C7.5874 10.9209 7.37835 10.8793 7.16723 10.8793C6.9561 10.8793 6.74705 10.9209 6.55201 11.0017C6.357 11.0825 6.17981 11.201 6.03057 11.3502C6.03055 11.3503 6.03053 11.3503 6.0305 11.3503L4.4759 12.9049L4.47549 12.9053C2.47432 14.911 1.35046 17.6287 1.35046 20.462C1.35046 23.2953 2.47432 26.0129 4.47549 28.0187L4.47589 28.0191L22.345 45.8882C22.345 45.8882 22.3451 45.8882 22.3451 45.8883C22.8847 46.4281 23.48 46.9088 24.1209 47.3224L24.1209 74.1121C24.1209 74.1124 24.1209 74.1126 24.1209 74.1129C24.1142 76.7362 24.7038 79.3267 25.8452 81.6887C26.9866 84.0508 28.6499 86.1225 30.7095 87.7473C31.3842 88.2823 32.1959 88.6162 33.0517 88.7109C33.9077 88.8056 34.7731 88.6571 35.5485 88.2824C36.324 87.9077 36.9781 87.322 37.4358 86.5924C37.8935 85.8629 38.1363 85.0191 38.1363 84.1579V51.272L60.7414 73.877C60.7418 73.8774 60.7423 73.8779 60.7427 73.8783M43.5265 37.5483L60.7427 73.8783M60.7427 73.8783L60.7429 73.8785L61.0965 73.525L60.7427 73.8783ZM23.8998 31.4927L23.8998 31.4927L7.16719 14.7602L6.74961 15.1777C5.35014 16.5803 4.56419 18.4808 4.56419 20.4621C4.56419 22.4434 5.35006 24.3438 6.7494 25.7463C6.74947 25.7464 6.74954 25.7465 6.74961 25.7465L24.6184 43.6153C26.0198 45.0166 27.9205 45.8038 29.9023 45.8038C31.8841 45.8038 33.7848 45.0166 35.1862 43.6153L40.47 38.3313L32.8602 30.7216L23.8998 31.4927ZM23.8998 31.4927C24.2012 31.7941 24.61 31.9634 25.0362 31.9635C25.4625 31.9635 25.8713 31.7943 26.1728 31.493L26.1729 31.4929M23.8998 31.4927L26.1729 31.4929M26.1729 31.4929L26.9445 30.7215L26.9682 30.6978M26.1729 31.4929L26.9682 30.6978M26.9682 30.6978C27.751 29.9294 28.8044 29.4984 29.9021 29.4984C31.011 29.4984 32.0746 29.9382 32.8598 30.7212L26.9682 30.6978ZM35.1606 11.9443V28.4755L35.1332 28.448L35.1327 28.4475C34.0015 27.3193 32.5359 26.587 30.9544 26.3598C29.6442 26.1716 28.3127 26.3385 27.0966 26.8359V4.47095L27.6875 4.47095C27.6876 4.47095 27.6876 4.47095 27.6877 4.47095C29.669 4.47327 31.5684 5.26138 32.9694 6.66237C34.3704 8.06342 35.1584 9.96298 35.1606 11.9443ZM32.7067 85.2282L32.7057 85.2275C31.027 83.9032 29.6713 82.2147 28.741 80.2895C27.8107 78.3643 27.3302 76.2529 27.3357 74.1147V74.1134V48.7081C29.7908 49.3122 32.3876 49.0306 34.6632 47.9021H34.7665L34.9215 48.0571L34.9215 84.1579C34.9215 84.4147 34.8491 84.6663 34.7126 84.8838C34.5761 85.1014 34.3811 85.276 34.1498 85.3878C33.9186 85.4995 33.6606 85.5438 33.4053 85.5156C33.15 85.4874 32.9079 85.3878 32.7067 85.2282ZM65.339 70.7948L65.3389 70.7961C65.3095 71.0512 65.2087 71.2929 65.0482 71.4934C64.8877 71.6938 64.6739 71.845 64.4314 71.9294L64.5959 72.4016L64.4314 71.9295C64.1889 72.0139 63.9275 72.0284 63.6772 71.971L63.5656 72.4584L63.6772 71.971C63.4268 71.9137 63.1977 71.787 63.0162 71.6054L62.6626 71.9589L63.0161 71.6054L37.3795 45.9686L42.7435 40.6046L61.2777 59.1387L61.2786 59.1396C62.7945 60.6476 63.9477 62.4804 64.6511 64.4996C65.3546 66.5187 65.5898 68.6714 65.339 70.7948Z" fill="#285A43" stroke="#285A43"/>
<path d="M34.5836 38.3309C34.5834 37.2481 34.2079 36.1988 33.521 35.3617C32.8339 34.5245 31.8777 33.9514 30.8155 33.7401C29.7532 33.5288 28.6506 33.6924 27.6954 34.2029C26.7402 34.7135 25.9916 35.5395 25.5771 36.5401C25.1627 37.5408 25.108 38.6541 25.4224 39.6906C25.7369 40.727 26.4009 41.6223 27.3015 42.224C28.2021 42.8257 29.2834 43.0966 30.3612 42.9904C31.4386 42.8842 32.4459 42.4079 33.2116 41.6426C33.6479 41.2086 33.9939 40.6924 34.2294 40.1238C34.4648 39.5555 34.5852 38.9461 34.5836 38.3309ZM34.5836 38.3309C34.5836 38.3307 34.5836 38.3305 34.5836 38.3302L34.0836 38.3316L34.5836 38.3316C34.5836 38.3314 34.5836 38.3311 34.5836 38.3309ZM30.9401 39.3675L30.9391 39.3684C30.6992 39.6084 30.3835 39.7577 30.0458 39.7909C29.7082 39.8241 29.3694 39.7393 29.0873 39.5507C28.8052 39.3622 28.5972 39.0817 28.4987 38.757C28.4002 38.4323 28.4174 38.0835 28.5472 37.77C28.6771 37.4566 28.9117 37.1978 29.2109 37.0379C29.5102 36.878 29.8556 36.8268 30.1884 36.893C30.5212 36.9592 30.8207 37.1388 31.0359 37.4011C31.2512 37.6634 31.3688 37.9922 31.3687 38.3315L31.3687 38.3329C31.3693 38.5251 31.3316 38.7156 31.2581 38.8932L31.72 39.0845L31.2581 38.8932C31.1845 39.0707 31.0765 39.2319 30.9401 39.3675Z" fill="#285A43" stroke="#285A43"/>
</svg>
