<svg width="126" height="126" viewBox="0 0 126 126" fill="none" xmlns="http://www.w3.org/2000/svg">
<path d="M54.5421 91.9766C58.4564 89.4665 62.9489 88.0083 67.5858 87.7386V80.5984C63.9164 80.4403 60.4337 78.9053 57.8385 76.2893C55.1268 73.5558 53.6032 69.8628 53.5986 66.0125L53.5986 66.0119L53.5986 65.0195C53.5986 64.5932 53.7679 64.1844 54.0694 63.8829C54.3708 63.5815 54.7797 63.4121 55.206 63.4121H56.1983H56.1988C59.0706 63.4151 61.878 64.2635 64.2707 65.8516C66.3604 67.2386 68.0531 69.1362 69.1932 71.3567C70.3333 69.1362 72.026 67.2386 74.1157 65.8516C76.5084 64.2636 79.3158 63.4151 82.1876 63.4121L82.1881 63.4121L83.1804 63.4121C83.6068 63.4121 84.0156 63.5815 84.3171 63.8829C84.6185 64.1844 84.7879 64.5932 84.7879 65.0195V66.0119V66.0125C84.7832 69.8628 83.2596 73.5559 80.5479 76.2893C77.9527 78.9053 74.47 80.4403 70.8006 80.5984M54.5421 91.9766C54.5428 91.9762 54.5434 91.9758 54.5441 91.9753L54.81 92.3988L54.54 91.9779C54.5407 91.9775 54.5414 91.977 54.5421 91.9766ZM54.5421 91.9766C54.363 92.0894 54.2079 92.2365 54.0858 92.4094C53.9632 92.583 53.8763 92.7791 53.83 92.9865C53.7837 93.1939 53.779 93.4084 53.8161 93.6176C53.8532 93.8268 53.9315 94.0266 54.0463 94.2053C54.1611 94.3841 54.3102 94.5384 54.4851 94.6592C54.6599 94.7799 54.8569 94.8649 55.0648 94.909C55.2726 94.9532 55.4871 94.9557 55.6959 94.9164C55.9037 94.8773 56.1016 94.7977 56.2785 94.682M56.2785 94.682C60.134 92.2146 64.6157 90.9033 69.1932 90.9033C73.7708 90.9033 78.2524 92.2146 82.108 94.682M56.2785 94.682C56.2778 94.6825 56.2771 94.6829 56.2764 94.6834L56.0068 94.2623M56.2785 94.682C56.2795 94.6814 56.2804 94.6808 56.2813 94.6802L56.0068 94.2623M82.108 94.682C82.2849 94.7977 82.4828 94.8773 82.6906 94.9164C82.8994 94.9557 83.1139 94.9532 83.3218 94.909C83.5296 94.8649 83.7266 94.7799 83.9014 94.6592C84.0763 94.5384 84.2254 94.3841 84.3402 94.2053C84.455 94.0266 84.5333 93.8268 84.5704 93.6176L84.0781 93.5302M82.108 94.682C82.107 94.6814 82.1061 94.6808 82.1052 94.6802L82.3797 94.2623M82.108 94.682C82.1087 94.6825 82.1094 94.6829 82.1101 94.6834L82.3797 94.2623M84.0781 93.5302L84.5704 93.6176C84.6075 93.4083 84.6028 93.1939 84.5565 92.9865C84.5102 92.7791 84.4233 92.583 84.3007 92.4094C84.1786 92.2366 84.0237 92.0896 83.8447 91.9768M84.0781 93.5302C84.1037 93.3861 84.1004 93.2383 84.0685 93.0954C84.0366 92.9525 83.9767 92.8174 83.8923 92.6978C83.8078 92.5783 83.7005 92.4766 83.5765 92.3988M84.0781 93.5302C84.0525 93.6743 83.9986 93.812 83.9195 93.9351C83.8404 94.0583 83.7376 94.1646 83.6172 94.2478C83.4968 94.331 83.361 94.3895 83.2178 94.4199C83.0747 94.4504 82.9268 94.4521 82.783 94.425C82.6391 94.398 82.502 94.3427 82.3797 94.2623M83.8447 91.9768C79.9302 89.4666 75.4376 88.0083 70.8006 87.7386M83.8447 91.9768C83.8453 91.9772 83.8459 91.9775 83.8465 91.9779L83.5765 92.3988M83.8447 91.9768C83.8439 91.9763 83.8432 91.9758 83.8424 91.9753L83.5765 92.3988M70.8006 87.7386V80.5984M70.8006 87.7386V88.2146H70.3006M70.8006 87.7386C70.6408 87.7294 70.4809 87.7215 70.3208 87.715L70.3006 88.2146M70.8006 80.5984C70.6358 80.6055 70.4707 80.6098 70.3052 80.6114L70.3006 80.1114M70.8006 80.5984V80.1114H70.3006M70.3006 80.1114V88.2146M70.3006 80.1114C74.0191 80.0772 77.574 78.5772 80.1929 75.9372C82.8119 73.2972 84.2834 69.7305 84.2879 66.0119V65.0195C84.2879 64.7258 84.1712 64.4441 83.9635 64.2365C83.7558 64.0288 83.4741 63.9121 83.1804 63.9121H82.1881L70.3006 88.2146M70.3006 88.2146C75.0191 88.4051 79.6016 89.8493 83.5765 92.3988M70.3006 88.2146L83.5765 92.3988M83.5765 92.3988L54.318 93.0954C54.2861 93.2383 54.2828 93.3861 54.3084 93.5302C54.334 93.6743 54.3879 93.812 54.467 93.9351C54.5461 94.0583 54.6489 94.1646 54.7693 94.2478C54.8897 94.331 55.0255 94.3895 55.1687 94.4199C55.3119 94.4504 55.4597 94.4521 55.6035 94.425C55.7474 94.398 55.8845 94.3427 56.0068 94.2623M82.3797 94.2623C78.4432 91.7424 73.8672 90.4033 69.1932 90.4033C64.5193 90.4033 59.9433 91.7424 56.0068 94.2623M64.2468 69.9661C66.2311 71.9503 67.4094 74.5918 67.5677 77.3814C64.7782 77.2231 62.1366 76.0448 60.1524 74.0606C58.1681 72.0763 56.9898 69.4348 56.8315 66.6453C59.621 66.8035 62.2626 67.9819 64.2468 69.9661ZM74.1396 69.9661C76.1238 67.9819 78.7654 66.8035 81.5549 66.6453C81.3967 69.4348 80.2183 72.0763 78.2341 74.0606C76.2498 76.0448 73.6083 77.2231 70.8188 77.3814C70.977 74.5919 72.1554 71.9503 74.1396 69.9661Z" fill="#285A43" stroke="#285A43"/>
<path d="M68.2339 32.9649L68.5323 33.3661L68.2339 32.965L43.1956 51.5883V28.9478C43.1956 27.2813 42.5336 25.6831 41.3552 24.5047C40.1769 23.3263 38.5786 22.6643 36.9122 22.6643C35.2457 22.6643 33.6475 23.3263 32.4691 24.5047C31.2907 25.6831 30.6287 27.2813 30.6287 28.9478V63.2193C29.0277 64.278 27.7223 65.7292 26.8383 67.4364C25.9115 69.2262 25.4818 71.2319 25.5941 73.2443L25.5941 73.2445C25.7531 76.0793 26.966 78.7523 28.9947 80.7388C31.0234 82.7252 33.7213 83.8816 36.5588 83.981L36.5616 83.9811C36.6797 83.9846 36.7976 83.9865 36.9161 83.9865C37.2665 83.9865 37.6166 83.9704 37.9653 83.9385V101.728C37.9653 102.154 38.1346 102.563 38.4361 102.865C38.7375 103.166 39.1464 103.335 39.5727 103.335H98.8136C99.2399 103.335 99.6488 103.166 99.9502 102.865C100.252 102.563 100.421 102.154 100.421 101.728V56.2863C100.421 56.0356 100.362 55.7885 100.25 55.5645C100.137 55.3406 99.974 55.146 99.7729 54.9965L70.1525 32.965L69.8541 33.3661L70.1525 32.9649C69.8752 32.7587 69.5388 32.6473 69.1932 32.6473C68.8476 32.6473 68.5112 32.7587 68.2339 32.9649ZM33.0098 65.5334L33.0102 65.5331C33.2626 65.3944 33.473 65.1906 33.6196 64.9428C33.7662 64.695 33.8435 64.4123 33.8436 64.1244V28.9477C33.8436 28.1339 34.1668 27.3534 34.7423 26.7779C35.3178 26.2024 36.0983 25.8791 36.9122 25.8791C37.726 25.8791 38.5065 26.2024 39.082 26.7779C39.6575 27.3534 39.9808 28.1339 39.9808 28.9477V64.1244C39.9808 64.4123 40.0581 64.695 40.2047 64.9428C40.3513 65.1906 40.5618 65.3944 40.8141 65.5331L40.8146 65.5334C42.4143 66.4103 43.672 67.8004 44.3851 69.4796C45.0981 71.1588 45.2248 73.0292 44.7447 74.7892C44.2646 76.5492 43.2058 78.0962 41.739 79.1809C40.2721 80.2655 38.4827 80.8245 36.6593 80.7677C34.8792 80.7122 33.1667 80.0729 31.7857 78.9483C30.4047 77.8237 29.4318 76.2762 29.0169 74.5442C28.602 72.8122 28.7681 70.9919 29.4896 69.3636C30.2111 67.7353 31.448 66.3895 33.0098 65.5334ZM97.2062 100.121H41.1802V83.1561C43.0261 82.4053 44.6435 81.1802 45.8672 79.6023C47.1624 77.9321 47.965 75.9332 48.1842 73.831C48.4035 71.7289 48.0308 69.6073 47.1081 67.7058C46.226 65.8876 44.8746 64.3399 43.1957 63.221V55.595L69.1933 36.2581L97.2063 57.094L97.2062 100.121Z" fill="#285A43" stroke="#285A43"/>
<path d="M35.5298 74.8051C35.9388 75.0785 36.4197 75.2244 36.9116 75.2246L35.5298 74.8051ZM35.5298 74.8051C35.1206 74.5317 34.8017 74.1431 34.6133 73.6884M35.5298 74.8051L34.6133 73.6884M34.6133 73.6884C34.425 73.2337 34.3758 72.7334 34.4718 72.2507M34.6133 73.6884L34.4718 72.2507M34.4718 72.2507C34.5678 71.768 34.8048 71.3246 35.1528 70.9767M34.4718 72.2507L35.1528 70.9767M35.1528 70.9767C35.5008 70.6287 35.9442 70.3917 36.4269 70.2957M35.1528 70.9767L36.4269 70.2957M36.4269 70.2957C36.9096 70.1997 37.4099 70.249 37.8646 70.4373M36.4269 70.2957L37.8646 70.4373M37.8646 70.4373C38.3193 70.6257 38.7079 70.9446 38.9813 71.3538M37.8646 70.4373L38.9813 71.3538M38.9813 71.3538C39.2547 71.763 39.4006 72.244 39.4006 72.7361M38.9813 71.3538L39.4006 72.7361M39.4006 72.7361C39.3998 73.3958 39.1373 74.0283 38.6708 74.4948C38.2042 74.9614 37.5716 75.2238 36.9117 75.2246L39.4006 72.7361ZM32.2855 69.4037L32.6911 69.696L32.2855 69.4037C31.4628 70.545 31.0911 71.9501 31.2416 73.349C31.3922 74.7478 32.0545 76.0416 33.1013 76.9817C34.148 77.9218 35.5053 78.4419 36.9122 78.4419C38.3191 78.4419 39.6764 77.9218 40.7231 76.9817C41.7698 76.0416 42.4321 74.7478 42.5827 73.349C42.7333 71.9501 42.3615 70.545 41.5389 69.4037C40.7956 68.3725 39.7318 67.6225 38.5196 67.2664V31.449C38.5196 31.0227 38.3503 30.6138 38.0488 30.3124C37.7474 30.0109 37.3385 29.8416 36.9122 29.8416C36.4859 29.8416 36.077 30.0109 35.7756 30.3124L36.1243 30.6611L35.7756 30.3124C35.4741 30.6138 35.3048 31.0227 35.3048 31.449V67.2664C34.0926 67.6225 33.0287 68.3725 32.2855 69.4037Z" fill="#285A43" stroke="#285A43"/>
<path d="M66.8182 59.3862H66.8183L67.3025 50.8667H67.8025C67.8025 50.8658 67.8025 50.865 67.8025 50.8641C67.8019 50.4387 67.6326 50.0309 67.3317 49.7301C67.0303 49.4286 66.6214 49.2593 66.1951 49.2593C65.7688 49.2593 65.36 49.4286 65.0585 49.7301C64.7571 50.0315 64.5877 50.4404 64.5877 50.8667H64.5875L64.5879 50.879C64.5918 51.0409 64.5331 51.1981 64.4238 51.3177L64.4085 51.3345L64.3947 51.3527C63.8813 52.0296 63.6034 52.8559 63.6033 53.7055C63.6033 54.5551 63.8811 55.3815 64.3944 56.0585L64.4044 56.0717L64.4153 56.0842C64.5265 56.2122 64.5877 56.3761 64.5877 56.5457C64.5877 56.7153 64.5265 56.8792 64.4153 57.0073L64.4061 57.0179L64.3975 57.029C63.8749 57.7039 63.5951 58.5353 63.6033 59.3888C63.604 59.8142 63.7733 60.222 64.0741 60.5229C64.3756 60.8243 64.7844 60.9937 65.2107 60.9937C65.6371 60.9937 66.0459 60.8243 66.3474 60.5229C66.6488 60.2214 66.8182 59.8126 66.8182 59.3862Z" fill="#285A43" stroke="#285A43"/>
<path d="M73.7987 59.3862H73.7989L74.2831 50.8667H74.7831C74.7831 50.8658 74.7831 50.865 74.7831 50.8641C74.7824 50.4388 74.6131 50.0309 74.3123 49.7301C74.0108 49.4286 73.602 49.2593 73.1757 49.2593C72.7493 49.2593 72.3405 49.4286 72.039 49.7301C71.7376 50.0315 71.5682 50.4404 71.5682 50.8667H71.5681L71.5684 50.879C71.5724 51.0409 71.5136 51.1981 71.4044 51.3177L71.389 51.3345L71.3752 51.3527C70.8618 52.0297 70.5839 52.8559 70.5839 53.7055C70.5838 54.5551 70.8616 55.3814 71.3749 56.0584L71.3849 56.0717L71.3958 56.0842C71.507 56.2122 71.5682 56.3761 71.5682 56.5457C71.5682 56.7153 71.507 56.8792 71.3958 57.0072L71.3866 57.0179L71.378 57.029C70.8554 57.7039 70.5756 58.5353 70.5839 59.3888C70.5845 59.8142 70.7538 60.222 71.0547 60.5229C71.3561 60.8243 71.765 60.9937 72.1913 60.9937C72.6176 60.9937 73.0265 60.8243 73.3279 60.5229C73.6294 60.2214 73.7987 59.8126 73.7987 59.3862Z" fill="#285A43" stroke="#285A43"/>
</svg>
