<svg width="126" height="126" viewBox="0 0 126 126" fill="none" xmlns="http://www.w3.org/2000/svg">
<path d="M100.301 22.1633C82.55 22.1633 67.7518 35.037 64.7489 51.9379C62.8172 47.9586 59.867 44.5479 56.185 42.0603C52.0256 39.2501 47.1218 37.7458 42.1021 37.7403H42.1015C41.6752 37.7403 41.2664 37.9096 40.9649 38.2111C40.6635 38.5126 40.4941 38.9214 40.4941 39.3477V39.3483C40.5019 45.8491 43.0222 52.0953 47.528 56.7813C51.9227 61.3517 57.8745 64.0929 64.1922 64.4689V75.7028C62.6757 75.7615 61.1634 75.9017 59.662 76.1228C57.4354 71.9446 53.7056 68.7604 49.2194 67.2197C44.6188 65.6397 39.584 65.912 35.1807 67.9791C30.7774 70.0461 27.3513 73.7455 25.6277 78.2942C23.9041 82.8429 24.0183 87.8838 25.9461 92.3498C27.8739 96.8157 31.4639 100.356 35.9563 102.222C40.4486 104.087 45.4907 104.131 50.0149 102.345C54.5392 100.558 58.1907 97.0809 60.1963 92.6493C62.117 88.4055 62.3839 83.6053 60.9594 79.1856C62.5494 78.9862 64.1504 78.8846 65.7532 78.8814C65.7567 78.8817 65.7605 78.882 65.7644 78.8822C65.7748 78.8829 65.7866 78.8834 65.7996 78.8834C65.8178 78.8834 65.8337 78.8825 65.8464 78.8814C73.3137 78.8836 80.6239 81.0273 86.9101 85.0585C87.087 85.1742 87.285 85.2539 87.4927 85.2929C87.7015 85.3322 87.9161 85.3297 88.1239 85.2856C88.3318 85.2414 88.5288 85.1565 88.7036 85.0357C88.8784 84.9149 89.0276 84.7606 89.1424 84.5819C89.2572 84.4031 89.3354 84.2033 89.3726 83.9941C89.4097 83.7849 89.405 83.5704 89.3587 83.363C89.3124 83.1556 89.2254 82.9595 89.1028 82.7859C88.9808 82.6131 88.8258 82.4661 88.6468 82.3533C82.2866 78.2752 74.9514 75.9797 67.407 75.7019V59.8421C86.5747 58.998 101.908 43.1429 101.908 23.7708C101.908 23.3444 101.739 22.9356 101.437 22.6341L101.437 22.6341C101.136 22.3327 100.727 22.1633 100.301 22.1633ZM65.7133 78.8765L65.7156 78.8769C65.7137 78.8766 65.7121 78.8763 65.7133 78.8765ZM84.5398 41.6412L84.0799 41.4449L84.5398 41.6412C84.6234 41.4453 84.6673 41.2347 84.6688 41.0217C84.6704 40.8086 84.6295 40.5974 84.5487 40.4003C84.4679 40.2032 84.3487 40.0241 84.1981 39.8734C84.0474 39.7228 83.8684 39.6036 83.6712 39.5228C83.4741 39.442 83.2629 39.4011 83.0499 39.4027C82.8368 39.4042 82.6262 39.4481 82.4303 39.5317C82.2355 39.6149 82.0591 39.7357 81.9112 39.8872C81.9103 39.8881 81.9095 39.889 81.9086 39.8899L67.6665 54.1318C69.6405 38.4755 82.6626 26.2111 98.6526 25.4189C97.8604 41.409 85.5958 54.4313 69.9393 56.4051L84.1816 42.1629C84.1825 42.162 84.1834 42.1611 84.1844 42.1602C84.3359 42.0123 84.4566 41.8359 84.5398 41.6412ZM57.6163 47.3919C61.3275 51.1031 63.5841 56.0148 63.9892 61.2352C58.7688 60.8301 53.8571 58.5736 50.1459 54.8624C46.4346 51.1513 44.1781 46.2396 43.773 41.0192C48.9934 41.4242 53.9051 43.6807 57.6163 47.3919ZM42.9764 100.622C39.8774 100.622 36.8479 99.7027 34.2711 97.9809C31.6941 96.2591 29.6856 93.8118 28.4996 90.9484C27.3135 88.0851 27.0032 84.9343 27.6078 81.8946C28.2124 78.8548 29.7049 76.0627 31.8964 73.8711C34.0879 71.6796 36.88 70.1872 39.9198 69.5825C42.9595 68.9779 46.1102 69.2882 48.9736 70.4742C51.837 71.6602 54.2843 73.6687 56.0062 76.2457C57.728 78.8224 58.647 81.8519 58.6471 84.951C58.6424 89.1057 56.9899 93.0888 54.0521 96.0267C51.1143 98.9645 47.1311 100.617 42.9764 100.622Z" fill="#285A43" stroke="#285A43"/>
<path d="M50.9552 84.6345H44.5845V77.0769C44.5845 76.6506 44.4151 76.2417 44.1137 75.9403C43.8122 75.6388 43.4034 75.4695 42.9771 75.4695C42.5507 75.4695 42.1419 75.6388 41.8404 75.9403C41.539 76.2417 41.3696 76.6506 41.3696 77.0769V86.242C41.3696 86.6683 41.539 87.0771 41.8404 87.3786C42.1419 87.68 42.5507 87.8494 42.9771 87.8494H50.9552C51.3815 87.8494 51.7903 87.68 52.0918 87.3786C52.3932 87.0771 52.5626 86.6683 52.5626 86.242C52.5626 85.8156 52.3932 85.4068 52.0918 85.1053C51.7903 84.8039 51.3815 84.6345 50.9552 84.6345Z" fill="#285A43" stroke="#285A43"/>
</svg>
